<?xml version="1.0" encoding="UTF-8" standalone="no"?>
<!-- Created with Inkscape (http://www.inkscape.org/) -->

<svg
   version="1.1"
   id="svg2"
   xml:space="preserve"
   width="793.70135"
   height="261.05066"
   viewBox="0 0 793.70135 361.05066"
   xmlns="http://www.w3.org/2000/svg"
   xmlns:svg="http://www.w3.org/2000/svg"><defs
     id="defs6"><clipPath
       clipPathUnits="userSpaceOnUse"
       id="clipPath16"><path
         d="M 0,270.788 H 595.276 V 0 H 0 Z"
         id="path14" /></clipPath><radialGradient
       fx="0"
       fy="0"
       cx="0"
       cy="0"
       r="1"
       gradientUnits="userSpaceOnUse"
       gradientTransform="matrix(-230.27425,-86.026977,-86.026977,230.27425,446.57919,82.84539)"
       spreadMethod="pad"
       id="radialGradient74"><stop
         style="stop-opacity:1;stop-color:#0073aa"
         offset="0"
         id="stop62" /><stop
         style="stop-opacity:1;stop-color:#0073aa"
         offset="0.03315284"
         id="stop64" /><stop
         style="stop-opacity:1;stop-color:#1c9bd7"
         offset="0.522277"
         id="stop66" /><stop
         style="stop-opacity:1;stop-color:#1c9bd7"
         offset="0.68426402"
         id="stop68" /><stop
         style="stop-opacity:1;stop-color:#005c98"
         offset="0.994382"
         id="stop70" /><stop
         style="stop-opacity:1;stop-color:#005c98"
         offset="1"
         id="stop72" /></radialGradient><radialGradient
       fx="0"
       fy="0"
       cx="0"
       cy="0"
       r="1"
       gradientUnits="userSpaceOnUse"
       gradientTransform="matrix(-230.27425,-86.026977,-86.026977,230.27425,446.57919,82.84539)"
       spreadMethod="pad"
       id="radialGradient102"><stop
         style="stop-opacity:1;stop-color:#0073aa"
         offset="0"
         id="stop90" /><stop
         style="stop-opacity:1;stop-color:#0073aa"
         offset="0.03315284"
         id="stop92" /><stop
         style="stop-opacity:1;stop-color:#1c9bd7"
         offset="0.522277"
         id="stop94" /><stop
         style="stop-opacity:1;stop-color:#1c9bd7"
         offset="0.68426402"
         id="stop96" /><stop
         style="stop-opacity:1;stop-color:#005c98"
         offset="0.994382"
         id="stop98" /><stop
         style="stop-opacity:1;stop-color:#005c98"
         offset="1"
         id="stop100" /></radialGradient><radialGradient
       fx="0"
       fy="0"
       cx="0"
       cy="0"
       r="1"
       gradientUnits="userSpaceOnUse"
       gradientTransform="matrix(-230.27425,-86.026977,-86.026977,230.27425,446.57919,82.84539)"
       spreadMethod="pad"
       id="radialGradient130"><stop
         style="stop-opacity:1;stop-color:#0073aa"
         offset="0"
         id="stop118" /><stop
         style="stop-opacity:1;stop-color:#0073aa"
         offset="0.03315284"
         id="stop120" /><stop
         style="stop-opacity:1;stop-color:#1c9bd7"
         offset="0.522277"
         id="stop122" /><stop
         style="stop-opacity:1;stop-color:#1c9bd7"
         offset="0.68426402"
         id="stop124" /><stop
         style="stop-opacity:1;stop-color:#005c98"
         offset="0.994382"
         id="stop126" /><stop
         style="stop-opacity:1;stop-color:#005c98"
         offset="1"
         id="stop128" /></radialGradient><radialGradient
       fx="0"
       fy="0"
       cx="0"
       cy="0"
       r="1"
       gradientUnits="userSpaceOnUse"
       gradientTransform="matrix(-230.27425,-86.026977,-86.026977,230.27425,446.57919,82.84539)"
       spreadMethod="pad"
       id="radialGradient158"><stop
         style="stop-opacity:1;stop-color:#0073aa"
         offset="0"
         id="stop146" /><stop
         style="stop-opacity:1;stop-color:#0073aa"
         offset="0.03315284"
         id="stop148" /><stop
         style="stop-opacity:1;stop-color:#1c9bd7"
         offset="0.522277"
         id="stop150" /><stop
         style="stop-opacity:1;stop-color:#1c9bd7"
         offset="0.68426402"
         id="stop152" /><stop
         style="stop-opacity:1;stop-color:#005c98"
         offset="0.994382"
         id="stop154" /><stop
         style="stop-opacity:1;stop-color:#005c98"
         offset="1"
         id="stop156" /></radialGradient><radialGradient
       fx="0"
       fy="0"
       cx="0"
       cy="0"
       r="1"
       gradientUnits="userSpaceOnUse"
       gradientTransform="matrix(-230.27425,-86.026977,-86.026977,230.27425,446.57919,82.84539)"
       spreadMethod="pad"
       id="radialGradient186"><stop
         style="stop-opacity:1;stop-color:#0073aa"
         offset="0"
         id="stop174" /><stop
         style="stop-opacity:1;stop-color:#0073aa"
         offset="0.03315284"
         id="stop176" /><stop
         style="stop-opacity:1;stop-color:#1c9bd7"
         offset="0.522277"
         id="stop178" /><stop
         style="stop-opacity:1;stop-color:#1c9bd7"
         offset="0.68426402"
         id="stop180" /><stop
         style="stop-opacity:1;stop-color:#005c98"
         offset="0.994382"
         id="stop182" /><stop
         style="stop-opacity:1;stop-color:#005c98"
         offset="1"
         id="stop184" /></radialGradient><radialGradient
       fx="0"
       fy="0"
       cx="0"
       cy="0"
       r="1"
       gradientUnits="userSpaceOnUse"
       gradientTransform="matrix(-230.27425,-86.026977,-86.026977,230.27425,446.57919,82.84539)"
       spreadMethod="pad"
       id="radialGradient214"><stop
         style="stop-opacity:1;stop-color:#0073aa"
         offset="0"
         id="stop202" /><stop
         style="stop-opacity:1;stop-color:#0073aa"
         offset="0.03315284"
         id="stop204" /><stop
         style="stop-opacity:1;stop-color:#1c9bd7"
         offset="0.522277"
         id="stop206" /><stop
         style="stop-opacity:1;stop-color:#1c9bd7"
         offset="0.68426402"
         id="stop208" /><stop
         style="stop-opacity:1;stop-color:#005c98"
         offset="0.994382"
         id="stop210" /><stop
         style="stop-opacity:1;stop-color:#005c98"
         offset="1"
         id="stop212" /></radialGradient><radialGradient
       fx="0"
       fy="0"
       cx="0"
       cy="0"
       r="1"
       gradientUnits="userSpaceOnUse"
       gradientTransform="matrix(-230.27425,-86.026977,-86.026977,230.27425,446.57919,82.84539)"
       spreadMethod="pad"
       id="radialGradient242"><stop
         style="stop-opacity:1;stop-color:#0073aa"
         offset="0"
         id="stop230" /><stop
         style="stop-opacity:1;stop-color:#0073aa"
         offset="0.03315284"
         id="stop232" /><stop
         style="stop-opacity:1;stop-color:#1c9bd7"
         offset="0.522277"
         id="stop234" /><stop
         style="stop-opacity:1;stop-color:#1c9bd7"
         offset="0.68426402"
         id="stop236" /><stop
         style="stop-opacity:1;stop-color:#005c98"
         offset="0.994382"
         id="stop238" /><stop
         style="stop-opacity:1;stop-color:#005c98"
         offset="1"
         id="stop240" /></radialGradient><radialGradient
       fx="0"
       fy="0"
       cx="0"
       cy="0"
       r="1"
       gradientUnits="userSpaceOnUse"
       gradientTransform="matrix(-230.27425,-86.026977,-86.026977,230.27425,446.57919,82.84539)"
       spreadMethod="pad"
       id="radialGradient270"><stop
         style="stop-opacity:1;stop-color:#0073aa"
         offset="0"
         id="stop258" /><stop
         style="stop-opacity:1;stop-color:#0073aa"
         offset="0.03315284"
         id="stop260" /><stop
         style="stop-opacity:1;stop-color:#1c9bd7"
         offset="0.522277"
         id="stop262" /><stop
         style="stop-opacity:1;stop-color:#1c9bd7"
         offset="0.68426402"
         id="stop264" /><stop
         style="stop-opacity:1;stop-color:#005c98"
         offset="0.994382"
         id="stop266" /><stop
         style="stop-opacity:1;stop-color:#005c98"
         offset="1"
         id="stop268" /></radialGradient><radialGradient
       fx="0"
       fy="0"
       cx="0"
       cy="0"
       r="1"
       gradientUnits="userSpaceOnUse"
       gradientTransform="matrix(-230.27425,-86.026977,-86.026977,230.27425,446.57919,82.84539)"
       spreadMethod="pad"
       id="radialGradient298"><stop
         style="stop-opacity:1;stop-color:#0073aa"
         offset="0"
         id="stop286" /><stop
         style="stop-opacity:1;stop-color:#0073aa"
         offset="0.03315284"
         id="stop288" /><stop
         style="stop-opacity:1;stop-color:#1c9bd7"
         offset="0.522277"
         id="stop290" /><stop
         style="stop-opacity:1;stop-color:#1c9bd7"
         offset="0.68426402"
         id="stop292" /><stop
         style="stop-opacity:1;stop-color:#005c98"
         offset="0.994382"
         id="stop294" /><stop
         style="stop-opacity:1;stop-color:#005c98"
         offset="1"
         id="stop296" /></radialGradient><radialGradient
       fx="0"
       fy="0"
       cx="0"
       cy="0"
       r="1"
       gradientUnits="userSpaceOnUse"
       gradientTransform="matrix(-230.27425,-86.026977,-86.026977,230.27425,446.57919,82.84539)"
       spreadMethod="pad"
       id="radialGradient326"><stop
         style="stop-opacity:1;stop-color:#0073aa"
         offset="0"
         id="stop314" /><stop
         style="stop-opacity:1;stop-color:#0073aa"
         offset="0.03315284"
         id="stop316" /><stop
         style="stop-opacity:1;stop-color:#1c9bd7"
         offset="0.522277"
         id="stop318" /><stop
         style="stop-opacity:1;stop-color:#1c9bd7"
         offset="0.68426402"
         id="stop320" /><stop
         style="stop-opacity:1;stop-color:#005c98"
         offset="0.994382"
         id="stop322" /><stop
         style="stop-opacity:1;stop-color:#005c98"
         offset="1"
         id="stop324" /></radialGradient><linearGradient
       x1="0"
       y1="0"
       x2="1"
       y2="0"
       gradientUnits="userSpaceOnUse"
       gradientTransform="matrix(128.25011,0,0,-128.25011,38.250973,137.46361)"
       spreadMethod="pad"
       id="linearGradient354"><stop
         style="stop-opacity:1;stop-color:#0073aa"
         offset="0"
         id="stop342" /><stop
         style="stop-opacity:1;stop-color:#0073aa"
         offset="0.03315284"
         id="stop344" /><stop
         style="stop-opacity:1;stop-color:#1c9bd7"
         offset="0.522277"
         id="stop346" /><stop
         style="stop-opacity:1;stop-color:#1c9bd7"
         offset="0.68426402"
         id="stop348" /><stop
         style="stop-opacity:1;stop-color:#025790"
         offset="0.994382"
         id="stop350" /><stop
         style="stop-opacity:1;stop-color:#025790"
         offset="1"
         id="stop352" /></linearGradient><radialGradient
       fx="0"
       fy="0"
       cx="0"
       cy="0"
       r="1"
       gradientUnits="userSpaceOnUse"
       gradientTransform="matrix(-178.13667,79.944267,79.944267,178.13667,96.471252,154.10005)"
       spreadMethod="pad"
       id="radialGradient382"><stop
         style="stop-opacity:1;stop-color:#0073aa"
         offset="0"
         id="stop370" /><stop
         style="stop-opacity:1;stop-color:#0073aa"
         offset="0.03315284"
         id="stop372" /><stop
         style="stop-opacity:1;stop-color:#1c9bd7"
         offset="0.522277"
         id="stop374" /><stop
         style="stop-opacity:1;stop-color:#1c9bd7"
         offset="0.68426402"
         id="stop376" /><stop
         style="stop-opacity:1;stop-color:#005c98"
         offset="0.994382"
         id="stop378" /><stop
         style="stop-opacity:1;stop-color:#005c98"
         offset="1"
         id="stop380" /></radialGradient><clipPath
       clipPathUnits="userSpaceOnUse"
       id="clipPath392"><path
         d="M 0,270.788 H 595.276 V 0 H 0 Z"
         id="path390" /></clipPath></defs><g
     id="g8"
     transform="matrix(1.3333333,0,0,-1.3333333,0,361.05067)"><g
       id="g10"><g
         id="g12"
         clip-path="url(#clipPath16)"><g
           id="g18"
           transform="translate(166.5073,176.6206)"><path
             d="m 0,0 c 5.476,0 10.179,-0.649 14.109,-1.947 3.93,-1.299 7.166,-3.086 9.709,-5.362 2.542,-2.275 4.418,-4.96 5.628,-8.054 1.208,-3.094 1.814,-6.437 1.814,-10.029 0,-3.877 -0.622,-7.434 -1.867,-10.669 -1.246,-3.236 -3.148,-6.011 -5.708,-8.322 -2.56,-2.312 -5.806,-4.117 -9.735,-5.414 C 10.019,-51.096 5.369,-51.744 0,-51.744 h -9.389 v -25.979 h -18.03 V 0 Z"
             style="fill:#002431;fill-opacity:1;fill-rule:nonzero;stroke:none"
             id="path20" /></g><g
           id="g22"
           transform="translate(237.2412,133.1987)"><path
             d="m 0,0 c 0,1.314 -0.169,2.595 -0.507,3.84 -0.338,1.245 -0.889,2.356 -1.654,3.334 -0.765,0.978 -1.769,1.769 -3.013,2.374 -1.246,0.604 -2.757,0.907 -4.534,0.907 -3.131,0 -5.584,-0.898 -7.362,-2.694 C -18.849,5.965 -20.022,3.377 -20.591,0 Z m -20.805,-9.603 c 0.534,-4.623 1.938,-7.975 4.215,-10.055 2.275,-2.081 5.209,-3.12 8.802,-3.12 1.92,0 3.574,0.23 4.96,0.693 1.388,0.462 2.623,0.978 3.708,1.546 1.084,0.569 2.081,1.085 2.987,1.548 0.907,0.462 1.858,0.693 2.854,0.693 1.316,0 2.311,-0.48 2.987,-1.44 l 4.801,-5.921 c -1.706,-1.956 -3.547,-3.548 -5.52,-4.775 -1.974,-1.227 -4.001,-2.187 -6.082,-2.88 -2.08,-0.693 -4.16,-1.174 -6.241,-1.44 -2.081,-0.267 -4.063,-0.401 -5.948,-0.401 -3.877,0 -7.513,0.633 -10.909,1.894 -3.397,1.262 -6.366,3.138 -8.908,5.628 -2.544,2.489 -4.553,5.583 -6.028,9.282 -1.477,3.698 -2.214,8.001 -2.214,12.91 0,3.697 0.631,7.201 1.893,10.508 1.262,3.308 3.076,6.206 5.442,8.695 2.364,2.489 5.227,4.463 8.588,5.922 3.361,1.458 7.156,2.187 11.389,2.187 3.662,0 7.015,-0.569 10.055,-1.707 3.041,-1.139 5.655,-2.793 7.842,-4.961 2.187,-2.17 3.894,-4.828 5.122,-7.975 1.226,-3.148 1.84,-6.713 1.84,-10.696 0,-1.245 -0.054,-2.259 -0.161,-3.041 -0.106,-0.782 -0.302,-1.405 -0.586,-1.866 -0.285,-0.463 -0.667,-0.783 -1.147,-0.96 -0.48,-0.179 -1.094,-0.268 -1.841,-0.268 z"
             style="fill:#002431;fill-opacity:1;fill-rule:nonzero;stroke:none"
             id="path24" /></g><g
           id="g26"
           transform="translate(279.4375,98.0439)"><path
             d="m 0,0 c -2.632,0 -4.953,0.383 -6.962,1.147 -2.009,0.764 -3.699,1.849 -5.067,3.254 -1.369,1.404 -2.41,3.102 -3.121,5.095 -0.711,1.991 -1.067,4.214 -1.067,6.668 v 28.592 h -4.694 c -0.853,0 -1.583,0.276 -2.187,0.827 -0.606,0.551 -0.907,1.36 -0.907,2.427 v 6.455 l 8.802,1.707 3.254,13.496 c 0.427,1.707 1.635,2.561 3.627,2.561 H 0.32 V 56.065 H 14.03 V 44.756 H 0.32 V 17.284 c 0,-1.281 0.311,-2.339 0.933,-3.174 0.622,-0.837 1.521,-1.254 2.694,-1.254 0.605,0 1.112,0.062 1.521,0.187 0.408,0.124 0.764,0.267 1.067,0.427 0.301,0.16 0.586,0.301 0.853,0.426 0.267,0.125 0.578,0.187 0.933,0.187 0.498,0 0.898,-0.116 1.201,-0.346 0.302,-0.232 0.614,-0.597 0.934,-1.094 L 15.47,4.801 C 13.336,3.201 10.936,2 8.269,1.2 5.602,0.4 2.845,0 0,0"
             style="fill:#002431;fill-opacity:1;fill-rule:nonzero;stroke:none"
             id="path28" /></g><g
           id="g30"
           transform="translate(334.4883,133.1987)"><path
             d="m 0,0 c 0,1.314 -0.17,2.595 -0.507,3.84 -0.339,1.245 -0.889,2.356 -1.654,3.334 -0.765,0.978 -1.769,1.769 -3.014,2.374 -1.245,0.604 -2.756,0.907 -4.534,0.907 -3.13,0 -5.583,-0.898 -7.361,-2.694 C -18.85,5.965 -20.022,3.377 -20.591,0 Z m -20.805,-9.603 c 0.534,-4.623 1.938,-7.975 4.215,-10.055 2.275,-2.081 5.209,-3.12 8.802,-3.12 1.92,0 3.573,0.23 4.961,0.693 1.387,0.462 2.622,0.978 3.707,1.546 1.085,0.569 2.081,1.085 2.987,1.548 0.907,0.462 1.858,0.693 2.855,0.693 1.315,0 2.31,-0.48 2.986,-1.44 l 4.802,-5.921 c -1.707,-1.956 -3.547,-3.548 -5.522,-4.775 -1.973,-1.227 -4,-2.187 -6.081,-2.88 -2.08,-0.693 -4.161,-1.174 -6.241,-1.44 -2.081,-0.267 -4.063,-0.401 -5.948,-0.401 -3.876,0 -7.513,0.633 -10.909,1.894 -3.397,1.262 -6.367,3.138 -8.909,5.628 -2.543,2.489 -4.552,5.583 -6.027,9.282 -1.477,3.698 -2.214,8.001 -2.214,12.91 0,3.697 0.631,7.201 1.894,10.508 1.261,3.308 3.075,6.206 5.44,8.695 2.365,2.489 5.229,4.463 8.589,5.922 3.36,1.458 7.156,2.187 11.389,2.187 3.662,0 7.015,-0.569 10.055,-1.707 3.041,-1.139 5.655,-2.793 7.842,-4.961 2.188,-2.17 3.894,-4.828 5.121,-7.975 1.228,-3.148 1.841,-6.713 1.841,-10.696 0,-1.245 -0.054,-2.259 -0.16,-3.041 -0.107,-0.782 -0.303,-1.405 -0.587,-1.866 -0.285,-0.463 -0.667,-0.783 -1.146,-0.96 -0.481,-0.179 -1.095,-0.268 -1.841,-0.268 z"
             style="fill:#002431;fill-opacity:1;fill-rule:nonzero;stroke:none"
             id="path32" /></g><g
           id="g34"
           transform="translate(373.0547,145.6811)"><path
             d="m 0,0 c 1.708,2.987 3.673,5.334 5.896,7.041 2.222,1.708 4.773,2.561 7.654,2.561 2.489,0 4.516,-0.587 6.081,-1.761 L 18.564,-4.321 c -0.178,-0.783 -0.471,-1.317 -0.88,-1.6 -0.41,-0.286 -0.969,-0.428 -1.68,-0.428 -0.285,0 -0.658,0.018 -1.12,0.054 -0.463,0.035 -0.944,0.08 -1.441,0.133 -0.499,0.054 -1.005,0.107 -1.52,0.161 -0.516,0.053 -0.986,0.08 -1.414,0.08 -2.418,0 -4.347,-0.641 -5.787,-1.921 -1.441,-1.28 -2.659,-3.059 -3.654,-5.334 V -46.784 H -15.469 V 8.535 h 9.816 c 0.817,0 1.502,-0.072 2.053,-0.214 0.551,-0.142 1.014,-0.364 1.387,-0.667 0.373,-0.302 0.658,-0.702 0.854,-1.2 0.195,-0.498 0.364,-1.102 0.506,-1.813 z"
             style="fill:#002431;fill-opacity:1;fill-rule:nonzero;stroke:none"
             id="path36" /></g><g
           id="g38"
           transform="translate(433.4385,142.1064)"><path
             d="M 0,0 C -0.426,-0.676 -0.879,-1.156 -1.359,-1.44 -1.84,-1.725 -2.453,-1.867 -3.2,-1.867 c -0.782,0 -1.566,0.169 -2.347,0.507 -0.782,0.338 -1.628,0.702 -2.534,1.094 -0.906,0.391 -1.93,0.755 -3.067,1.093 -1.138,0.338 -2.437,0.507 -3.894,0.507 -2.1,0 -3.708,-0.4 -4.828,-1.2 -1.12,-0.801 -1.68,-1.912 -1.68,-3.334 0,-1.032 0.363,-1.885 1.093,-2.561 0.729,-0.676 1.698,-1.272 2.908,-1.787 1.208,-0.516 2.577,-1.005 4.108,-1.467 1.527,-0.463 3.092,-0.979 4.693,-1.547 1.601,-0.569 3.165,-1.236 4.694,-2.001 1.529,-0.765 2.899,-1.706 4.108,-2.827 1.208,-1.12 2.178,-2.48 2.908,-4.081 0.727,-1.6 1.093,-3.52 1.093,-5.761 0,-2.739 -0.498,-5.263 -1.493,-7.575 -0.997,-2.312 -2.481,-4.303 -4.456,-5.974 -1.972,-1.672 -4.41,-2.97 -7.307,-3.894 -2.899,-0.925 -6.233,-1.387 -10.002,-1.387 -1.886,0 -3.771,0.178 -5.655,0.533 -1.886,0.355 -3.707,0.835 -5.467,1.44 -1.761,0.605 -3.388,1.325 -4.881,2.161 -1.494,0.835 -2.774,1.733 -3.841,2.694 l 3.841,6.081 c 0.427,0.711 0.969,1.271 1.626,1.68 0.658,0.409 1.502,0.614 2.534,0.614 0.96,0 1.822,-0.213 2.587,-0.64 0.765,-0.427 1.592,-0.889 2.481,-1.387 0.888,-0.499 1.929,-0.96 3.121,-1.387 1.191,-0.427 2.694,-0.64 4.507,-0.64 1.281,0 2.365,0.133 3.254,0.4 0.889,0.267 1.601,0.631 2.134,1.093 0.534,0.462 0.925,0.978 1.173,1.547 0.249,0.569 0.374,1.156 0.374,1.761 0,1.102 -0.374,2.008 -1.12,2.72 -0.747,0.711 -1.726,1.325 -2.934,1.841 -1.21,0.515 -2.588,0.995 -4.134,1.44 -1.547,0.445 -3.122,0.951 -4.721,1.52 -1.601,0.569 -3.174,1.254 -4.721,2.054 -1.547,0.8 -2.927,1.813 -4.135,3.04 -1.209,1.228 -2.186,2.729 -2.933,4.509 -0.747,1.777 -1.121,3.929 -1.121,6.454 0,2.347 0.455,4.578 1.361,6.695 0.906,2.115 2.268,3.974 4.08,5.574 1.814,1.6 4.09,2.871 6.828,3.814 2.739,0.942 5.939,1.414 9.603,1.414 1.991,0 3.921,-0.178 5.787,-0.533 1.868,-0.356 3.618,-0.854 5.256,-1.494 C -2.686,10.296 -1.191,9.54 0.16,8.668 1.513,7.797 2.702,6.846 3.735,5.814 Z"
             style="fill:#002431;fill-opacity:1;fill-rule:nonzero;stroke:none"
             id="path40" /></g><g
           id="g42"
           transform="translate(480.2217,133.1987)"><path
             d="m 0,0 c 0,1.314 -0.169,2.595 -0.507,3.84 -0.338,1.245 -0.889,2.356 -1.653,3.334 -0.765,0.978 -1.771,1.769 -3.014,2.374 -1.245,0.604 -2.757,0.907 -4.535,0.907 -3.129,0 -5.583,-0.898 -7.36,-2.694 C -18.849,5.965 -20.022,3.377 -20.592,0 Z m -20.804,-9.603 c 0.533,-4.623 1.939,-7.975 4.213,-10.055 2.278,-2.081 5.21,-3.12 8.803,-3.12 1.92,0 3.574,0.23 4.961,0.693 1.387,0.462 2.623,0.978 3.708,1.546 1.083,0.569 2.08,1.085 2.987,1.548 0.906,0.462 1.858,0.693 2.854,0.693 1.315,0 2.311,-0.48 2.987,-1.44 l 4.801,-5.921 c -1.707,-1.956 -3.548,-3.548 -5.521,-4.775 -1.974,-1.227 -4.001,-2.187 -6.082,-2.88 -2.08,-0.693 -4.161,-1.174 -6.241,-1.44 -2.08,-0.267 -4.063,-0.401 -5.947,-0.401 -3.878,0 -7.514,0.633 -10.909,1.894 -3.397,1.262 -6.368,3.138 -8.91,5.628 -2.542,2.489 -4.551,5.583 -6.027,9.282 -1.477,3.698 -2.214,8.001 -2.214,12.91 0,3.697 0.63,7.201 1.894,10.508 1.261,3.308 3.076,6.206 5.441,8.695 2.365,2.489 5.228,4.463 8.589,5.922 3.36,1.458 7.156,2.187 11.389,2.187 3.663,0 7.014,-0.569 10.054,-1.707 3.041,-1.139 5.655,-2.793 7.843,-4.961 2.187,-2.17 3.894,-4.828 5.121,-7.975 1.227,-3.148 1.84,-6.713 1.84,-10.696 0,-1.245 -0.054,-2.259 -0.16,-3.041 -0.107,-0.782 -0.302,-1.405 -0.587,-1.866 -0.284,-0.463 -0.667,-0.783 -1.146,-0.96 -0.481,-0.179 -1.094,-0.268 -1.84,-0.268 z"
             style="fill:#002431;fill-opacity:1;fill-rule:nonzero;stroke:none"
             id="path44" /></g><g
           id="g46"
           transform="translate(518.5752,148.2412)"><path
             d="m 0,0 c 1.067,0.995 2.17,1.92 3.308,2.774 1.136,0.854 2.356,1.574 3.654,2.161 1.298,0.586 2.703,1.048 4.214,1.387 1.512,0.337 3.156,0.507 4.934,0.507 3.023,0 5.7,-0.526 8.029,-1.575 2.329,-1.048 4.294,-2.506 5.894,-4.374 1.601,-1.867 2.81,-4.089 3.627,-6.668 0.819,-2.579 1.228,-5.379 1.228,-8.401 V -49.344 H 18.352 v 35.155 c 0,2.702 -0.623,4.809 -1.869,6.321 -1.245,1.511 -3.076,2.267 -5.494,2.267 -1.814,0 -3.512,-0.382 -5.094,-1.147 C 4.312,-7.513 2.773,-8.553 1.28,-9.869 V -49.344 H -15.256 V 5.975 h 10.241 c 2.063,0 3.415,-0.926 4.055,-2.774 z"
             style="fill:#002431;fill-opacity:1;fill-rule:nonzero;stroke:none"
             id="path48" /></g></g></g><g
       id="g50"><g
         id="g52"><g
           id="g58"><g
             id="g60"><path
               d="m 334.829,85.28 -4.391,-35.947 h 8.092 l 4.392,35.947 z"
               style="fill:url(#radialGradient74);stroke:none"
               id="path76" /></g></g></g></g><g
       id="g78"><g
         id="g80"><g
           id="g86"><g
             id="g88"><path
               d="m 346.992,85.28 -0.79,-6.365 h 9.179 l -3.602,-29.582 h 7.993 l 3.651,29.582 h 9.128 l 0.839,6.365 z"
               style="fill:url(#radialGradient102);stroke:none"
               id="path104" /></g></g></g></g><g
       id="g106"><g
         id="g108"><g
           id="g114"><g
             id="g116"><path
               d="m 391.351,84.614 c -1.596,-0.675 -2.953,-1.579 -4.072,-2.714 v 0 c -1.119,-1.135 -1.977,-2.439 -2.577,-3.91 v 0 c -0.6,-1.473 -0.901,-3.007 -0.901,-4.602 v 0 c 0,-1.382 0.184,-2.545 0.555,-3.49 v 0 c 0.371,-0.947 0.855,-1.745 1.455,-2.393 v 0 c 0.601,-0.651 1.288,-1.178 2.061,-1.58 v 0 c 0.772,-0.403 1.563,-0.752 2.369,-1.049 v 0 c 0.805,-0.296 1.594,-0.571 2.368,-0.827 v 0 c 0.773,-0.254 1.46,-0.546 2.06,-0.875 v 0 c 0.6,-0.329 1.086,-0.732 1.456,-1.209 v 0 c 0.37,-0.477 0.555,-1.085 0.555,-1.825 v 0 c 0,-1.596 -0.407,-2.801 -1.222,-3.615 v 0 c -0.814,-0.814 -1.969,-1.221 -3.466,-1.221 v 0 c -1.02,0 -1.879,0.159 -2.578,0.481 v 0 c -0.699,0.32 -1.311,0.674 -1.838,1.061 v 0 c -0.527,0.386 -1.008,0.741 -1.444,1.061 v 0 c -0.434,0.32 -0.885,0.48 -1.344,0.48 v 0 c -0.346,0 -0.686,-0.089 -1.024,-0.27 v 0 c -0.337,-0.182 -0.621,-0.413 -0.852,-0.692 v 0 l -2.861,-3.75 c 0.576,-0.706 1.275,-1.348 2.096,-1.924 v 0 c 0.823,-0.576 1.716,-1.073 2.677,-1.492 v 0 c 0.963,-0.42 1.965,-0.745 3.011,-0.975 v 0 c 1.044,-0.23 2.084,-0.346 3.121,-0.346 v 0 c 2.089,0 3.968,0.35 5.638,1.049 v 0 c 1.668,0.698 3.088,1.645 4.255,2.838 v 0 c 1.167,1.191 2.064,2.585 2.689,4.181 v 0 c 0.625,1.596 0.937,3.298 0.937,5.107 v 0 c 0,1.267 -0.184,2.352 -0.554,3.257 v 0 c -0.37,0.904 -0.863,1.678 -1.481,2.319 v 0 c -0.616,0.642 -1.315,1.175 -2.098,1.604 v 0 c -0.781,0.427 -1.577,0.805 -2.391,1.134 v 0 c -0.815,0.329 -1.608,0.633 -2.38,0.913 v 0 c -0.774,0.279 -1.47,0.588 -2.086,0.926 v 0 c -0.618,0.336 -1.111,0.728 -1.481,1.172 v 0 c -0.369,0.444 -0.554,0.995 -0.554,1.653 v 0 c 0,0.608 0.093,1.167 0.283,1.677 v 0 c 0.189,0.51 0.473,0.954 0.851,1.332 v 0 c 0.378,0.378 0.852,0.675 1.419,0.888 v 0 c 0.566,0.214 1.229,0.322 1.986,0.322 v 0 c 0.823,0 1.537,-0.124 2.147,-0.371 v 0 c 0.608,-0.247 1.147,-0.517 1.616,-0.814 v 0 c 0.468,-0.296 0.89,-0.567 1.269,-0.814 v 0 c 0.379,-0.247 0.757,-0.37 1.136,-0.37 v 0 c 0.395,0 0.731,0.095 1.011,0.284 v 0 c 0.28,0.188 0.568,0.472 0.864,0.851 v 0 l 2.418,3.307 c -0.478,0.607 -1.061,1.17 -1.752,1.689 v 0 c -0.692,0.518 -1.456,0.966 -2.294,1.344 v 0 c -0.839,0.378 -1.741,0.674 -2.702,0.889 v 0 c -0.961,0.214 -1.953,0.32 -2.972,0.32 v 0 c -1.991,0 -3.785,-0.337 -5.379,-1.011"
               style="fill:url(#radialGradient130);stroke:none"
               id="path132" /></g></g></g></g><g
       id="g134"><g
         id="g136"><g
           id="g142"><g
             id="g144"><path
               d="m 417.021,74.684 c -1.225,-0.387 -2.352,-0.925 -3.379,-1.617 v 0 c -1.03,-0.691 -1.953,-1.517 -2.777,-2.479 v 0 c -0.822,-0.962 -1.517,-2.015 -2.084,-3.158 v 0 c -0.568,-1.143 -1.004,-2.364 -1.308,-3.664 v 0 c -0.304,-1.3 -0.456,-2.632 -0.456,-3.996 v 0 c 0,-1.629 0.251,-3.109 0.752,-4.442 v 0 c 0.502,-1.332 1.208,-2.471 2.122,-3.417 v 0 c 0.913,-0.945 2.002,-1.677 3.268,-2.196 v 0 c 1.268,-0.517 2.657,-0.777 4.171,-0.777 v 0 c 1.216,0 2.339,0.099 3.367,0.296 v 0 c 1.029,0.198 1.998,0.506 2.911,0.926 v 0 c 0.914,0.419 1.801,0.953 2.665,1.604 v 0 c 0.863,0.648 1.747,1.418 2.652,2.306 v 0 l -1.974,2.294 c -0.181,0.198 -0.387,0.359 -0.617,0.482 v 0 c -0.231,0.123 -0.468,0.184 -0.715,0.184 v 0 c -0.379,0 -0.715,-0.057 -1.012,-0.172 v 0 c -0.296,-0.115 -0.58,-0.262 -0.85,-0.444 v 0 c -0.273,-0.181 -0.555,-0.369 -0.852,-0.568 v 0 c -0.296,-0.197 -0.629,-0.386 -0.999,-0.567 v 0 c -0.37,-0.181 -0.801,-0.329 -1.295,-0.444 v 0 c -0.494,-0.115 -1.078,-0.173 -1.753,-0.173 v 0 c -1.43,0 -2.512,0.403 -3.243,1.209 v 0 c -0.732,0.807 -1.115,2.081 -1.148,3.824 v 0 c 2.928,0.296 5.358,0.708 7.291,1.234 v 0 c 1.932,0.526 3.47,1.168 4.614,1.924 v 0 c 1.142,0.757 1.944,1.616 2.405,2.579 v 0 c 0.46,0.962 0.69,2.027 0.69,3.195 v 0 c 0,0.789 -0.188,1.578 -0.567,2.368 v 0 c -0.378,0.79 -0.928,1.501 -1.653,2.135 v 0 c -0.724,0.632 -1.616,1.146 -2.676,1.541 v 0 c -1.062,0.395 -2.274,0.592 -3.639,0.592 v 0 c -1.381,0 -2.685,-0.193 -3.911,-0.579 m 0.135,-6.094 c 0.954,1.011 2.065,1.517 3.332,1.517 v 0 c 0.723,0 1.249,-0.19 1.579,-0.568 v 0 c 0.327,-0.378 0.494,-0.781 0.494,-1.208 v 0 c 0,-0.428 -0.096,-0.823 -0.285,-1.185 v 0 c -0.19,-0.361 -0.554,-0.703 -1.098,-1.024 v 0 c -0.543,-0.321 -1.307,-0.621 -2.295,-0.9 v 0 c -0.987,-0.28 -2.269,-0.544 -3.848,-0.79 v 0 c 0.46,1.76 1.168,3.146 2.121,4.158"
               style="fill:url(#radialGradient158);stroke:none"
               id="path160" /></g></g></g></g><g
       id="g162"><g
         id="g164"><g
           id="g170"><g
             id="g172"><path
               d="m 447.318,75.053 c -0.782,-0.058 -1.545,-0.304 -2.295,-0.74 v 0 c -0.749,-0.436 -1.475,-1.049 -2.183,-1.838 v 0 c -0.707,-0.789 -1.373,-1.735 -1.999,-2.837 v 0 2.912 c 0,0.838 -0.221,1.443 -0.665,1.813 v 0 c -0.445,0.37 -1.061,0.555 -1.851,0.555 v 0 h -3.947 l -3.11,-25.585 h 7.502 l 1.381,11.473 c 0.395,1.644 0.868,2.993 1.419,4.046 v 0 c 0.55,1.052 1.167,1.842 1.85,2.368 v 0 c 0.682,0.527 1.432,0.806 2.245,0.839 v 0 c 0.814,0.033 1.69,-0.148 2.627,-0.543 v 0 l 1.382,7.081 c -0.68,0.312 -1.358,0.468 -2.033,0.468 v 0 c -0.108,0 -0.215,-0.004 -0.323,-0.012"
               style="fill:url(#radialGradient186);stroke:none"
               id="path188" /></g></g></g></g><g
       id="g190"><g
         id="g192"><g
           id="g198"><g
             id="g200"><path
               d="m 468.842,74.918 c -0.442,0 -0.845,-0.127 -1.207,-0.383 v 0 c -0.362,-0.254 -0.633,-0.571 -0.815,-0.949 v 0 l -4.49,-11.473 c -0.411,-0.987 -0.789,-1.941 -1.134,-2.862 v 0 c -0.346,-0.921 -0.667,-1.85 -0.963,-2.788 v 0 c -0.066,0.938 -0.148,1.871 -0.247,2.8 v 0 c -0.098,0.93 -0.221,1.879 -0.37,2.85 v 0 l -1.677,11.473 c -0.083,0.378 -0.277,0.695 -0.58,0.949 v 0 c -0.304,0.256 -0.721,0.383 -1.247,0.383 v 0 h -6.315 l 6.218,-25.585 h 6.463 l 12.435,25.585 z"
               style="fill:url(#radialGradient214);stroke:none"
               id="path216" /></g></g></g></g><g
       id="g218"><g
         id="g220"><g
           id="g226"><g
             id="g228"><path
               d="m 480.119,86.057 c -0.527,-0.238 -0.999,-0.563 -1.42,-0.974 v 0 c -0.418,-0.412 -0.75,-0.888 -0.999,-1.432 v 0 c -0.246,-0.541 -0.369,-1.118 -0.369,-1.726 v 0 c 0,-0.609 0.123,-1.181 0.369,-1.715 v 0 c 0.249,-0.535 0.573,-1.004 0.975,-1.406 v 0 c 0.403,-0.403 0.867,-0.725 1.394,-0.962 v 0 c 0.526,-0.239 1.077,-0.358 1.653,-0.358 v 0 c 0.575,0 1.138,0.119 1.691,0.358 v 0 c 0.551,0.237 1.039,0.559 1.467,0.962 v 0 c 0.428,0.402 0.773,0.871 1.037,1.406 v 0 c 0.262,0.534 0.394,1.106 0.394,1.715 v 0 c 0,0.625 -0.126,1.209 -0.382,1.752 v 0 c -0.255,0.542 -0.593,1.019 -1.012,1.431 v 0 c -0.419,0.411 -0.901,0.73 -1.443,0.962 v 0 c -0.543,0.23 -1.11,0.345 -1.702,0.345 v 0 c -0.575,0 -1.126,-0.119 -1.653,-0.358 m -2.788,-11.139 -3.06,-25.585 h 7.55 l 3.059,25.585 z"
               style="fill:url(#radialGradient242);stroke:none"
               id="path244" /></g></g></g></g><g
       id="g246"><g
         id="g248"><g
           id="g254"><g
             id="g256"><path
               d="m 495.242,74.018 c -1.678,-0.832 -3.13,-1.954 -4.355,-3.369 v 0 c -1.226,-1.414 -2.179,-3.059 -2.862,-4.934 v 0 c -0.682,-1.874 -1.023,-3.857 -1.023,-5.945 v 0 c 0,-1.662 0.229,-3.159 0.69,-4.491 v 0 c 0.46,-1.332 1.113,-2.467 1.961,-3.405 v 0 c 0.847,-0.937 1.872,-1.661 3.073,-2.171 v 0 c 1.199,-0.509 2.549,-0.765 4.045,-0.765 v 0 c 1.102,0 2.11,0.087 3.023,0.26 v 0 c 0.913,0.172 1.772,0.448 2.578,0.826 v 0 c 0.805,0.379 1.587,0.88 2.343,1.505 v 0 c 0.756,0.625 1.547,1.389 2.369,2.295 v 0 l -1.973,2.319 c -0.182,0.181 -0.387,0.333 -0.617,0.456 v 0 c -0.23,0.124 -0.469,0.185 -0.716,0.185 v 0 c -0.444,0 -0.822,-0.111 -1.134,-0.333 v 0 c -0.313,-0.222 -0.651,-0.465 -1.012,-0.728 v 0 c -0.363,-0.263 -0.787,-0.506 -1.271,-0.728 v 0 c -0.485,-0.222 -1.122,-0.333 -1.91,-0.333 v 0 c -0.529,0 -1.022,0.107 -1.483,0.321 v 0 c -0.46,0.213 -0.863,0.531 -1.208,0.95 v 0 c -0.346,0.419 -0.618,0.945 -0.814,1.579 v 0 c -0.198,0.633 -0.297,1.377 -0.297,2.233 v 0 c 0,1.53 0.169,2.894 0.508,4.096 v 0 c 0.335,1.2 0.784,2.211 1.343,3.033 v 0 c 0.558,0.823 1.197,1.452 1.912,1.888 v 0 c 0.716,0.436 1.453,0.654 2.209,0.654 v 0 c 0.608,0 1.102,-0.07 1.48,-0.21 v 0 c 0.379,-0.14 0.698,-0.288 0.961,-0.444 v 0 c 0.264,-0.157 0.506,-0.304 0.729,-0.444 v 0 c 0.221,-0.139 0.497,-0.21 0.827,-0.21 v 0 c 0.278,0 0.533,0.071 0.764,0.21 v 0 c 0.23,0.14 0.435,0.3 0.616,0.482 v 0 l 2.468,2.836 c -0.97,1.251 -2.068,2.168 -3.293,2.751 v 0 c -1.226,0.584 -2.693,0.876 -4.406,0.876 v 0 c -2.006,0 -3.847,-0.415 -5.525,-1.245"
               style="fill:url(#radialGradient270);stroke:none"
               id="path272" /></g></g></g></g><g
       id="g274"><g
         id="g276"><g
           id="g282"><g
             id="g284"><path
               d="m 518.742,74.684 c -1.226,-0.387 -2.353,-0.925 -3.38,-1.617 v 0 c -1.027,-0.691 -1.953,-1.517 -2.775,-2.479 v 0 c -0.824,-0.962 -1.518,-2.015 -2.085,-3.158 v 0 c -0.568,-1.143 -1.003,-2.364 -1.308,-3.664 v 0 c -0.304,-1.3 -0.456,-2.632 -0.456,-3.996 v 0 c 0,-1.629 0.251,-3.109 0.752,-4.442 v 0 c 0.502,-1.332 1.211,-2.471 2.122,-3.417 v 0 c 0.914,-0.945 2.002,-1.677 3.27,-2.196 v 0 c 1.265,-0.517 2.655,-0.777 4.169,-0.777 v 0 c 1.217,0 2.34,0.099 3.367,0.296 v 0 c 1.028,0.198 1.999,0.506 2.911,0.926 v 0 c 0.914,0.419 1.801,0.953 2.665,1.604 v 0 c 0.863,0.648 1.747,1.418 2.652,2.306 v 0 l -1.974,2.294 c -0.181,0.198 -0.387,0.359 -0.615,0.482 v 0 c -0.23,0.123 -0.47,0.184 -0.717,0.184 v 0 c -0.378,0 -0.715,-0.057 -1.011,-0.172 v 0 c -0.297,-0.115 -0.579,-0.262 -0.851,-0.444 v 0 c -0.271,-0.181 -0.555,-0.369 -0.851,-0.568 v 0 c -0.297,-0.197 -0.63,-0.386 -1,-0.567 v 0 c -0.371,-0.181 -0.801,-0.329 -1.295,-0.444 v 0 c -0.493,-0.115 -1.078,-0.173 -1.751,-0.173 v 0 c -1.431,0 -2.514,0.403 -3.244,1.209 v 0 c -0.733,0.807 -1.115,2.081 -1.147,3.824 v 0 c 2.927,0.296 5.357,0.708 7.29,1.234 v 0 c 1.932,0.526 3.469,1.168 4.613,1.924 v 0 c 1.143,0.757 1.945,1.616 2.405,2.579 v 0 c 0.461,0.962 0.691,2.027 0.691,3.195 v 0 c 0,0.789 -0.189,1.578 -0.567,2.368 v 0 c -0.379,0.79 -0.93,1.501 -1.653,2.135 v 0 c -0.724,0.632 -1.617,1.146 -2.677,1.541 v 0 c -1.061,0.395 -2.274,0.592 -3.64,0.592 v 0 c -1.382,0 -2.684,-0.193 -3.91,-0.579 m 0.137,-6.094 c 0.953,1.011 2.063,1.517 3.33,1.517 v 0 c 0.723,0 1.25,-0.19 1.578,-0.568 v 0 c 0.329,-0.378 0.494,-0.781 0.494,-1.208 v 0 c 0,-0.428 -0.095,-0.823 -0.284,-1.185 v 0 c -0.19,-0.361 -0.554,-0.703 -1.099,-1.024 v 0 c -0.541,-0.321 -1.307,-0.621 -2.292,-0.9 v 0 c -0.987,-0.28 -2.271,-0.544 -3.85,-0.79 v 0 c 0.46,1.76 1.168,3.146 2.123,4.158"
               style="fill:url(#radialGradient298);stroke:none"
               id="path300" /></g></g></g></g><g
       id="g302"><g
         id="g304"><g
           id="g310"><g
             id="g312"><path
               d="m 540.145,74.524 c -1.283,-0.528 -2.356,-1.223 -3.22,-2.086 v 0 c -0.863,-0.864 -1.513,-1.854 -1.95,-2.972 v 0 c -0.434,-1.119 -0.653,-2.27 -0.653,-3.455 v 0 c 0,-0.954 0.137,-1.768 0.408,-2.443 v 0 c 0.27,-0.674 0.629,-1.241 1.072,-1.702 v 0 c 0.445,-0.46 0.946,-0.843 1.507,-1.147 v 0 c 0.558,-0.304 1.133,-0.572 1.726,-0.802 v 0 c 0.591,-0.23 1.167,-0.44 1.726,-0.629 v 0 c 0.559,-0.189 1.062,-0.403 1.505,-0.641 v 0 c 0.444,-0.239 0.802,-0.522 1.074,-0.851 v 0 c 0.272,-0.33 0.407,-0.749 0.407,-1.259 v 0 c 0,-0.658 -0.262,-1.229 -0.789,-1.714 v 0 c -0.526,-0.486 -1.332,-0.729 -2.419,-0.729 v 0 c -0.772,0 -1.398,0.099 -1.874,0.297 v 0 c -0.478,0.198 -0.888,0.411 -1.235,0.641 v 0 c -0.344,0.231 -0.666,0.445 -0.961,0.642 v 0 c -0.296,0.197 -0.65,0.296 -1.061,0.296 v 0 c -0.444,0 -0.818,-0.095 -1.123,-0.284 v 0 c -0.304,-0.189 -0.571,-0.448 -0.802,-0.777 v 0 l -1.874,-2.813 c 0.362,-0.444 0.829,-0.859 1.405,-1.245 v 0 c 0.576,-0.387 1.214,-0.72 1.914,-0.999 v 0 c 0.698,-0.281 1.442,-0.502 2.232,-0.666 v 0 c 0.789,-0.166 1.587,-0.248 2.394,-0.248 v 0 c 1.692,0 3.218,0.251 4.576,0.753 v 0 c 1.357,0.502 2.513,1.176 3.466,2.023 v 0 c 0.954,0.847 1.687,1.842 2.195,2.985 v 0 c 0.51,1.143 0.766,2.356 0.766,3.639 v 0 c 0,0.905 -0.137,1.687 -0.408,2.344 v 0 c -0.27,0.658 -0.629,1.225 -1.073,1.702 v 0 c -0.444,0.477 -0.949,0.881 -1.518,1.209 v 0 c -0.567,0.33 -1.146,0.621 -1.739,0.876 v 0 c -0.592,0.255 -1.171,0.485 -1.739,0.691 v 0 c -0.567,0.206 -1.073,0.432 -1.517,0.679 v 0 c -0.443,0.246 -0.803,0.526 -1.073,0.838 v 0 c -0.272,0.313 -0.408,0.691 -0.408,1.135 v 0 c 0,0.691 0.242,1.254 0.729,1.69 v 0 c 0.484,0.436 1.296,0.654 2.429,0.654 v 0 c 0.608,0 1.147,-0.074 1.616,-0.222 v 0 c 0.47,-0.148 0.889,-0.317 1.259,-0.505 v 0 c 0.369,-0.19 0.715,-0.359 1.036,-0.507 v 0 c 0.321,-0.147 0.645,-0.221 0.975,-0.221 v 0 c 0.328,0 0.59,0.065 0.789,0.197 v 0 c 0.198,0.131 0.412,0.345 0.642,0.641 v 0 l 1.974,2.715 c -0.872,0.855 -1.979,1.578 -3.32,2.171 v 0 c -1.339,0.591 -2.865,0.888 -4.576,0.888 v 0 c -1.711,0 -3.208,-0.264 -4.49,-0.789"
               style="fill:url(#radialGradient326);stroke:none"
               id="path328" /></g></g></g></g><g
       id="g330"><g
         id="g332"><g
           id="g338"><g
             id="g340"><path
               d="m 53.956,227.475 c -0.027,-0.472 -0.069,-0.863 -0.069,-1.253 v 0 c -0.005,-10.058 -0.02,-20.118 0.028,-30.175 v 0 c 0.004,-0.742 0.327,-1.575 0.742,-2.208 v 0 C 66.77,175.387 78.902,156.947 91.084,138.54 v 0 c 0.781,-1.181 0.837,-1.961 0.037,-3.168 v 0 C 78.935,116.969 66.796,98.532 54.687,80.077 v 0 c -0.47,-0.715 -0.765,-1.687 -0.771,-2.541 v 0 C 53.863,68.055 53.883,58.575 53.883,49.095 v 0 -1.643 H 166.501 V 69.69 c -0.762,0 -1.44,-0.001 -2.118,0 v 0 c -2.787,0.001 -5.574,-0.002 -8.361,-0.006 v 0 c -7.979,-0.01 -15.959,-0.02 -23.935,0.104 v 0 c -2.168,0.033 -4.489,0.649 -6.445,1.599 v 0 c -3.942,1.916 -5.127,5.751 -5.136,9.721 v 0 c -0.082,37.574 -0.076,75.149 0.024,112.723 v 0 c 0.005,2.156 0.703,4.484 1.688,6.423 v 0 c 1.941,3.823 5.636,4.932 9.636,4.953 v 0 c 10.881,0.06 21.763,0.021 32.645,0.021 v 0 h 1.965 v 22.247 z M 38.251,77.974 c 0.41,0.551 0.623,0.808 0.804,1.085 v 0 c 12.432,18.869 24.853,37.745 37.313,56.595 v 0 c 0.651,0.986 0.604,1.647 -0.031,2.608 v 0 C 63.938,157.014 51.575,175.791 39.203,194.56 v 0 c -0.239,0.364 -0.515,0.704 -0.952,1.298 v 0 z"
               style="fill:url(#linearGradient354);stroke:none"
               id="path356" /></g></g></g></g><g
       id="g358"><g
         id="g360"><g
           id="g366"><g
             id="g368"><path
               d="m 53.956,227.475 c -0.027,-0.472 -0.069,-0.863 -0.069,-1.253 v 0 c -0.005,-10.058 -0.02,-20.118 0.028,-30.175 v 0 c 0.004,-0.742 0.327,-1.575 0.742,-2.208 v 0 C 66.77,175.387 78.902,156.947 91.084,138.54 v 0 c 0.781,-1.181 0.837,-1.961 0.037,-3.168 v 0 C 78.935,116.969 66.796,98.532 54.687,80.077 v 0 c -0.47,-0.715 -0.765,-1.687 -0.771,-2.541 v 0 C 53.863,68.055 53.883,58.575 53.883,49.095 v 0 -1.643 H 166.501 V 69.69 c -0.762,0 -1.44,-0.001 -2.118,0 v 0 c -2.787,0.001 -5.574,-0.002 -8.361,-0.006 v 0 c -7.979,-0.01 -15.959,-0.02 -23.935,0.104 v 0 c -2.168,0.033 -4.489,0.649 -6.445,1.599 v 0 c -3.942,1.916 -5.127,5.751 -5.136,9.721 v 0 c -0.082,37.574 -0.076,75.149 0.024,112.723 v 0 c 0.005,2.156 0.703,4.484 1.688,6.423 v 0 c 1.941,3.823 5.636,4.932 9.636,4.953 v 0 c 10.881,0.06 21.763,0.021 32.645,0.021 v 0 h 1.965 v 22.247 z"
               style="fill:url(#radialGradient382);stroke:none"
               id="path384" /></g></g></g></g><g
       id="g386"><g
         id="g388"
         clip-path="url(#clipPath392)"><g
           id="g394"
           transform="translate(166.6641,138.2592)"><path
             d="m 0,0 c 4.694,0 8.072,1.12 10.135,3.361 2.062,2.24 3.094,5.369 3.094,9.389 0,1.777 -0.267,3.395 -0.8,4.854 -0.533,1.458 -1.343,2.711 -2.427,3.761 C 8.917,22.413 7.548,23.223 5.895,23.792 4.241,24.36 2.275,24.646 0,24.646 H -9.389 V 0 Z"
             style="fill:#ffffff;fill-opacity:1;fill-rule:nonzero;stroke:none"
             id="path396" /></g></g></g></g></svg>
