<?xml version="1.0" encoding="utf-8"?>
<!-- Generator: Adobe Illustrator 27.0.1, SVG Export Plug-In . SVG Version: 6.00 Build 0)  -->
<svg version="1.1" id="svg2" xmlns:svg="http://www.w3.org/2000/svg"
	 xmlns="http://www.w3.org/2000/svg" xmlns:xlink="http://www.w3.org/1999/xlink" x="0px" y="0px" viewBox="0 0 793.7 261.1"
	 style="enable-background:new 0 0 793.7 261.1;" xml:space="preserve">
<style type="text/css">
	.st0{clip-path:url(#SVGID_00000040544173295762210520000008836542166731538361_);}
	.st1{clip-path:url(#SVGID_00000036245576692374367730000014251427106733025428_);fill:#002431;}
	.st2{fill:#002431;}
	.st3{fill:url(#path76_00000011014359494946628040000017494225460181851286_);}
	.st4{fill:url(#path104_00000150791548638880463820000014735886875834538635_);}
	.st5{fill:url(#path132_00000173122697841835283350000017407565254711649974_);}
	.st6{fill:url(#path160_00000000940193085088879480000001424755814235532715_);}
	.st7{fill:url(#path188_00000000902727585832832360000013097674656508048044_);}
	.st8{fill:url(#path216_00000166656058006290153530000008676252605402883253_);}
	.st9{fill:url(#path244_00000086669752557360471940000014364714835177385142_);}
	.st10{fill:url(#path272_00000183223237109081844490000004102835886534197410_);}
	.st11{fill:url(#path300_00000110436090054819288500000011656693468709286827_);}
	.st12{fill:url(#path328_00000066493109311896360030000000608419137019676847_);}
	.st13{fill:url(#path356_00000023278682178621269520000009572426491052300981_);}
	.st14{fill:url(#path384_00000078045858983398872640000013365302567116369341_);}
</style>
<g id="g8" transform="matrix(1.3333333,0,0,-1.3333333,0,361.05067)">
	<g id="g10">
		<g>
			<defs>
				<rect id="SVGID_1_" x="8.9" y="44.4" width="573.9" height="261.1"/>
			</defs>
			<clipPath id="SVGID_00000008850774797049917460000006155770072357357233_">
				<use xlink:href="#SVGID_1_"  style="overflow:visible;"/>
			</clipPath>
			<g id="g12" style="clip-path:url(#SVGID_00000008850774797049917460000006155770072357357233_);">
				<g id="g386">
					<g>
						<defs>
							<rect id="SVGID_00000042705308140990642970000013581071239662159778_" x="10.7" y="42.4" width="573.9" height="261.1"/>
						</defs>
						<clipPath id="SVGID_00000007414411089578966510000002474662721797175701_">
							<use xlink:href="#SVGID_00000042705308140990642970000013581071239662159778_"  style="overflow:visible;"/>
						</clipPath>
						<path style="clip-path:url(#SVGID_00000007414411089578966510000002474662721797175701_);fill:#002431;" d="M222.3,193.6
							c-0.9,2.2-2.2,4.2-4.1,5.8c-1.8,1.6-4.2,2.9-7,3.9c-2.8,0.9-6.2,1.4-10.2,1.4h-19.8v-56.2h13v18.8h6.8c3.9,0,7.2,0.5,10.1,1.4
							c2.8,0.9,5.2,2.2,7,3.9c1.9,1.7,3.2,3.7,4.1,6c0.9,2.3,1.3,4.9,1.3,7.7C223.6,188.9,223.2,191.4,222.3,193.6z M210.3,177.4
							c-1.5-1.6-3.9-2.4-7.3-2.4h-6.8v17.8h6.8c1.6,0,3.1-0.2,4.3-0.6c1.2-0.4,2.2-1,3-1.8c0.8-0.8,1.4-1.7,1.8-2.7
							c0.4-1.1,0.6-2.2,0.6-3.5C212.5,181.3,211.8,179,210.3,177.4z"/>
					</g>
				</g>
				<g id="g22" transform="translate(237.2412,133.1987)">
					<path id="path24" class="st2" d="M14.9,40.1c0,1-0.1,1.9-0.4,2.8s-0.6,1.7-1.2,2.4c-0.6,0.7-1.3,1.3-2.2,1.7
						c-0.9,0.4-2,0.7-3.3,0.7c-2.3,0-4-0.6-5.3-1.9c-1.3-1.3-2.1-3.2-2.5-5.6H14.9z M-0.1,33.2c0.4-3.3,1.4-5.8,3-7.3
						c1.6-1.5,3.8-2.3,6.4-2.3c1.4,0,2.6,0.2,3.6,0.5c1,0.3,1.9,0.7,2.7,1.1c0.8,0.4,1.5,0.8,2.2,1.1c0.7,0.3,1.3,0.5,2.1,0.5
						c1,0,1.7-0.3,2.2-1l3.5-4.3c-1.2-1.4-2.6-2.6-4-3.5C20,17.2,18.5,16.5,17,16c-1.5-0.5-3-0.8-4.5-1c-1.5-0.2-2.9-0.3-4.3-0.3
						c-2.8,0-5.4,0.5-7.9,1.4c-2.5,0.9-4.6,2.3-6.4,4.1c-1.8,1.8-3.3,4-4.4,6.7c-1.1,2.7-1.6,5.8-1.6,9.3c0,2.7,0.5,5.2,1.4,7.6
						c0.9,2.4,2.2,4.5,3.9,6.3c1.7,1.8,3.8,3.2,6.2,4.3c2.4,1.1,5.2,1.6,8.2,1.6c2.6,0,5.1-0.4,7.3-1.2c2.2-0.8,4.1-2,5.7-3.6
						c1.6-1.6,2.8-3.5,3.7-5.8c0.9-2.3,1.3-4.9,1.3-7.7c0-0.9,0-1.6-0.1-2.2c-0.1-0.6-0.2-1-0.4-1.3c-0.2-0.3-0.5-0.6-0.8-0.7
						c-0.3-0.1-0.8-0.2-1.3-0.2H-0.1z"/>
				</g>
				<g id="g26" transform="translate(279.4375,98.0439)">
					<path id="path28" class="st2" d="M3.2,49.8c-1.9,0-3.6,0.3-5,0.8S-4.5,52-5.5,53c-1,1-1.7,2.2-2.3,3.7c-0.5,1.4-0.8,3-0.8,4.8
						v20.7h-3.4c-0.6,0-1.1,0.2-1.6,0.6c-0.4,0.4-0.7,1-0.7,1.8v4.7l6.4,1.2l2.4,9.8c0.3,1.2,1.2,1.9,2.6,1.9h6.2V90.4h9.9v-8.2H3.4
						V62.3c0-0.9,0.2-1.7,0.7-2.3c0.4-0.6,1.1-0.9,1.9-0.9c0.4,0,0.8,0,1.1,0.1c0.3,0.1,0.6,0.2,0.8,0.3c0.2,0.1,0.4,0.2,0.6,0.3
						S9,60,9.2,60c0.4,0,0.6-0.1,0.9-0.3c0.2-0.2,0.4-0.4,0.7-0.8l3.6-5.7c-1.5-1.2-3.3-2-5.2-2.6C7.3,50.1,5.3,49.8,3.2,49.8"/>
				</g>
				<g id="g30" transform="translate(334.4883,133.1987)">
					<path id="path32" class="st2" d="M-12,40.1c0,1-0.1,1.9-0.4,2.8c-0.2,0.9-0.6,1.7-1.2,2.4c-0.6,0.7-1.3,1.3-2.2,1.7
						c-0.9,0.4-2,0.7-3.3,0.7c-2.3,0-4-0.6-5.3-1.9c-1.3-1.3-2.1-3.2-2.5-5.6H-12z M-27.1,33.2c0.4-3.3,1.4-5.8,3-7.3
						c1.6-1.5,3.8-2.3,6.4-2.3c1.4,0,2.6,0.2,3.6,0.5c1,0.3,1.9,0.7,2.7,1.1c0.8,0.4,1.5,0.8,2.2,1.1c0.7,0.3,1.3,0.5,2.1,0.5
						c1,0,1.7-0.3,2.2-1l3.5-4.3c-1.2-1.4-2.6-2.6-4-3.5C-7,17.2-8.4,16.5-9.9,16c-1.5-0.5-3-0.8-4.5-1c-1.5-0.2-2.9-0.3-4.3-0.3
						c-2.8,0-5.4,0.5-7.9,1.4c-2.5,0.9-4.6,2.3-6.4,4.1c-1.8,1.8-3.3,4-4.4,6.7c-1.1,2.7-1.6,5.8-1.6,9.3c0,2.7,0.5,5.2,1.4,7.6
						c0.9,2.4,2.2,4.5,3.9,6.3c1.7,1.8,3.8,3.2,6.2,4.3c2.4,1.1,5.2,1.6,8.2,1.6c2.6,0,5.1-0.4,7.3-1.2c2.2-0.8,4.1-2,5.7-3.6
						c1.6-1.6,2.8-3.5,3.7-5.8c0.9-2.3,1.3-4.9,1.3-7.7c0-0.9,0-1.6-0.1-2.2c-0.1-0.6-0.2-1-0.4-1.3c-0.2-0.3-0.5-0.6-0.8-0.7
						C-3,33.2-3.5,33.2-4,33.2H-27.1z"/>
				</g>
				<g id="g34" transform="translate(373.0547,145.6811)">
					<path id="path36" class="st2" d="M-22.7,36.7c1.2,2.2,2.7,3.9,4.3,5.1c1.6,1.2,3.5,1.9,5.5,1.9c1.8,0,3.3-0.4,4.4-1.3l-0.8-8.8
						c-0.1-0.6-0.3-1-0.6-1.2c-0.3-0.2-0.7-0.3-1.2-0.3c-0.2,0-0.5,0-0.8,0c-0.3,0-0.7,0.1-1,0.1c-0.4,0-0.7,0.1-1.1,0.1
						c-0.4,0-0.7,0.1-1,0.1c-1.7,0-3.1-0.5-4.2-1.4c-1-0.9-1.9-2.2-2.6-3.9V2.8h-12v40h7.1c0.6,0,1.1-0.1,1.5-0.2
						c0.4-0.1,0.7-0.3,1-0.5c0.3-0.2,0.5-0.5,0.6-0.9c0.1-0.4,0.3-0.8,0.4-1.3L-22.7,36.7z"/>
				</g>
				<g id="g38" transform="translate(433.4385,142.1064)">
					<path id="path40" class="st2" d="M-39.4,37.6c-0.3-0.5-0.6-0.8-1-1c-0.3-0.2-0.8-0.3-1.3-0.3c-0.6,0-1.1,0.1-1.7,0.4
						c-0.6,0.2-1.2,0.5-1.8,0.8c-0.7,0.3-1.4,0.5-2.2,0.8c-0.8,0.2-1.8,0.4-2.8,0.4c-1.5,0-2.7-0.3-3.5-0.9
						c-0.8-0.6-1.2-1.4-1.2-2.4c0-0.7,0.3-1.4,0.8-1.9c0.5-0.5,1.2-0.9,2.1-1.3c0.9-0.4,1.9-0.7,3-1.1c1.1-0.3,2.2-0.7,3.4-1.1
						c1.2-0.4,2.3-0.9,3.4-1.4c1.1-0.6,2.1-1.2,3-2c0.9-0.8,1.6-1.8,2.1-3c0.5-1.2,0.8-2.5,0.8-4.2c0-2-0.4-3.8-1.1-5.5
						c-0.7-1.7-1.8-3.1-3.2-4.3c-1.4-1.2-3.2-2.1-5.3-2.8c-2.1-0.7-4.5-1-7.2-1c-1.4,0-2.7,0.1-4.1,0.4c-1.4,0.3-2.7,0.6-4,1
						c-1.3,0.4-2.4,1-3.5,1.6c-1.1,0.6-2,1.3-2.8,1.9l2.8,4.4c0.3,0.5,0.7,0.9,1.2,1.2c0.5,0.3,1.1,0.4,1.8,0.4
						c0.7,0,1.3-0.2,1.9-0.5c0.6-0.3,1.2-0.6,1.8-1c0.6-0.4,1.4-0.7,2.3-1c0.9-0.3,1.9-0.5,3.3-0.5c0.9,0,1.7,0.1,2.4,0.3
						c0.6,0.2,1.2,0.5,1.5,0.8c0.4,0.3,0.7,0.7,0.8,1.1c0.2,0.4,0.3,0.8,0.3,1.3c0,0.8-0.3,1.5-0.8,2c-0.5,0.5-1.2,1-2.1,1.3
						c-0.9,0.4-1.9,0.7-3,1c-1.1,0.3-2.3,0.7-3.4,1.1c-1.2,0.4-2.3,0.9-3.4,1.5c-1.1,0.6-2.1,1.3-3,2.2c-0.9,0.9-1.6,2-2.1,3.3
						c-0.5,1.3-0.8,2.8-0.8,4.7c0,1.7,0.3,3.3,1,4.8c0.7,1.5,1.6,2.9,2.9,4c1.3,1.2,3,2.1,4.9,2.8c2,0.7,4.3,1,6.9,1
						c1.4,0,2.8-0.1,4.2-0.4c1.4-0.3,2.6-0.6,3.8-1.1c1.2-0.5,2.3-1,3.2-1.6c1-0.6,1.8-1.3,2.6-2.1L-39.4,37.6z"/>
				</g>
				<g id="g42" transform="translate(480.2217,133.1987)">
					<path id="path44" class="st2" d="M-52.4,40.1c0,1-0.1,1.9-0.4,2.8s-0.6,1.7-1.2,2.4c-0.6,0.7-1.3,1.3-2.2,1.7
						c-0.9,0.4-2,0.7-3.3,0.7c-2.3,0-4-0.6-5.3-1.9c-1.3-1.3-2.1-3.2-2.5-5.6H-52.4z M-67.4,33.2c0.4-3.3,1.4-5.8,3-7.3
						c1.6-1.5,3.8-2.3,6.4-2.3c1.4,0,2.6,0.2,3.6,0.5c1,0.3,1.9,0.7,2.7,1.1c0.8,0.4,1.5,0.8,2.2,1.1c0.7,0.3,1.3,0.5,2.1,0.5
						c1,0,1.7-0.3,2.2-1l3.5-4.3c-1.2-1.4-2.6-2.6-4-3.5c-1.4-0.9-2.9-1.6-4.4-2.1c-1.5-0.5-3-0.8-4.5-1c-1.5-0.2-2.9-0.3-4.3-0.3
						c-2.8,0-5.4,0.5-7.9,1.4c-2.5,0.9-4.6,2.3-6.4,4.1c-1.8,1.8-3.3,4-4.4,6.7c-1.1,2.7-1.6,5.8-1.6,9.3c0,2.7,0.5,5.2,1.4,7.6
						c0.9,2.4,2.2,4.5,3.9,6.3c1.7,1.8,3.8,3.2,6.2,4.3c2.4,1.1,5.2,1.6,8.2,1.6c2.6,0,5.1-0.4,7.3-1.2c2.2-0.8,4.1-2,5.7-3.6
						c1.6-1.6,2.8-3.5,3.7-5.8c0.9-2.3,1.3-4.9,1.3-7.7c0-0.9,0-1.6-0.1-2.2c-0.1-0.6-0.2-1-0.4-1.3c-0.2-0.3-0.5-0.6-0.8-0.7
						c-0.3-0.1-0.8-0.2-1.3-0.2H-67.4z"/>
				</g>
				<g id="g46" transform="translate(518.5752,148.2412)">
					<path id="path48" class="st2" d="M-63,35.9c0.8,0.7,1.6,1.4,2.4,2c0.8,0.6,1.7,1.1,2.6,1.6c0.9,0.4,2,0.8,3,1
						c1.1,0.2,2.3,0.4,3.6,0.4c2.2,0,4.1-0.4,5.8-1.1c1.7-0.8,3.1-1.8,4.3-3.2c1.2-1.3,2-3,2.6-4.8c0.6-1.9,0.9-3.9,0.9-6.1V0.3h-12
						v25.4c0,2-0.5,3.5-1.4,4.6c-0.9,1.1-2.2,1.6-4,1.6c-1.3,0-2.5-0.3-3.7-0.8c-1.1-0.6-2.3-1.3-3.3-2.3V0.3h-12v40h7.4
						c1.5,0,2.5-0.7,2.9-2L-63,35.9z"/>
				</g>
			</g>
		</g>
	</g>
	<g id="g50">
		<g id="g52">
			<g id="g58">
				<g id="g60">
					
						<radialGradient id="path76_00000088096192620895101450000003082083048558366349_" cx="-422.7144" cy="-235.0441" r="1" gradientTransform="matrix(-221.9937 -82.9335 -82.9335 221.9937 -112927.6562 17256.0371)" gradientUnits="userSpaceOnUse">
						<stop  offset="0" style="stop-color:#0073AA"/>
						<stop  offset="3.315284e-02" style="stop-color:#0073AA"/>
						<stop  offset="0.5223" style="stop-color:#1C9BD7"/>
						<stop  offset="0.6843" style="stop-color:#1C9BD7"/>
						<stop  offset="0.9944" style="stop-color:#005C98"/>
						<stop  offset="1" style="stop-color:#005C98"/>
					</radialGradient>
					<path id="path76" style="fill:url(#path76_00000088096192620895101450000003082083048558366349_);" d="M324.5,136.7l-3.2-26
						h5.9l3.2,26H324.5z"/>
				</g>
			</g>
		</g>
	</g>
	<g id="g78">
		<g id="g80">
			<g id="g86">
				<g id="g88">
					
						<radialGradient id="path104_00000011010166944142641410000016174819346336039056_" cx="-422.7144" cy="-235.0441" r="1" gradientTransform="matrix(-221.9937 -82.9335 -82.9335 221.9937 -112927.6562 17256.0371)" gradientUnits="userSpaceOnUse">
						<stop  offset="0" style="stop-color:#0073AA"/>
						<stop  offset="3.315284e-02" style="stop-color:#0073AA"/>
						<stop  offset="0.5223" style="stop-color:#1C9BD7"/>
						<stop  offset="0.6843" style="stop-color:#1C9BD7"/>
						<stop  offset="0.9944" style="stop-color:#005C98"/>
						<stop  offset="1" style="stop-color:#005C98"/>
					</radialGradient>
					<path id="path104" style="fill:url(#path104_00000011010166944142641410000016174819346336039056_);" d="M333.3,136.7l-0.6-4.6
						h6.6l-2.6-21.4h5.8l2.6,21.4h6.6l0.6,4.6H333.3z"/>
				</g>
			</g>
		</g>
	</g>
	<g id="g106">
		<g id="g108">
			<g id="g114">
				<g id="g116">
					
						<radialGradient id="path132_00000089559735669674593970000002700606218913947321_" cx="-422.7144" cy="-235.0441" r="1" gradientTransform="matrix(-221.9937 -82.9335 -82.9335 221.9937 -112927.6562 17256.0371)" gradientUnits="userSpaceOnUse">
						<stop  offset="0" style="stop-color:#0073AA"/>
						<stop  offset="3.315284e-02" style="stop-color:#0073AA"/>
						<stop  offset="0.5223" style="stop-color:#1C9BD7"/>
						<stop  offset="0.6843" style="stop-color:#1C9BD7"/>
						<stop  offset="0.9944" style="stop-color:#005C98"/>
						<stop  offset="1" style="stop-color:#005C98"/>
					</radialGradient>
					<path id="path132" style="fill:url(#path132_00000089559735669674593970000002700606218913947321_);" d="M365.4,136.2
						c-1.2-0.5-2.1-1.1-2.9-2l0,0c-0.8-0.8-1.4-1.8-1.9-2.8l0,0c-0.4-1.1-0.7-2.2-0.7-3.3l0,0c0-1,0.1-1.8,0.4-2.5l0,0
						c0.3-0.7,0.6-1.3,1.1-1.7l0,0c0.4-0.5,0.9-0.9,1.5-1.1l0,0c0.6-0.3,1.1-0.5,1.7-0.8l0,0c0.6-0.2,1.2-0.4,1.7-0.6l0,0
						c0.6-0.2,1.1-0.4,1.5-0.6l0,0c0.4-0.2,0.8-0.5,1.1-0.9l0,0c0.3-0.3,0.4-0.8,0.4-1.3l0,0c0-1.2-0.3-2-0.9-2.6l0,0
						c-0.6-0.6-1.4-0.9-2.5-0.9l0,0c-0.7,0-1.4,0.1-1.9,0.3l0,0c-0.5,0.2-0.9,0.5-1.3,0.8l0,0c-0.4,0.3-0.7,0.5-1,0.8l0,0
						c-0.3,0.2-0.6,0.3-1,0.3l0,0c-0.3,0-0.5-0.1-0.7-0.2l0,0c-0.2-0.1-0.4-0.3-0.6-0.5l0,0l-2.1-2.7c0.4-0.5,0.9-1,1.5-1.4l0,0
						c0.6-0.4,1.2-0.8,1.9-1.1l0,0c0.7-0.3,1.4-0.5,2.2-0.7l0,0c0.8-0.2,1.5-0.3,2.3-0.3l0,0c1.5,0,2.9,0.3,4.1,0.8l0,0
						c1.2,0.5,2.2,1.2,3.1,2.1l0,0c0.8,0.9,1.5,1.9,1.9,3l0,0c0.5,1.2,0.7,2.4,0.7,3.7l0,0c0,0.9-0.1,1.7-0.4,2.4l0,0
						c-0.3,0.7-0.6,1.2-1.1,1.7l0,0c-0.4,0.5-1,0.8-1.5,1.2l0,0c-0.6,0.3-1.1,0.6-1.7,0.8l0,0c-0.6,0.2-1.2,0.5-1.7,0.7l0,0
						c-0.6,0.2-1.1,0.4-1.5,0.7l0,0c-0.4,0.2-0.8,0.5-1.1,0.8l0,0c-0.3,0.3-0.4,0.7-0.4,1.2l0,0c0,0.4,0.1,0.8,0.2,1.2l0,0
						c0.1,0.4,0.3,0.7,0.6,1l0,0c0.3,0.3,0.6,0.5,1,0.6l0,0c0.4,0.2,0.9,0.2,1.4,0.2l0,0c0.6,0,1.1-0.1,1.6-0.3l0,0
						c0.4-0.2,0.8-0.4,1.2-0.6l0,0c0.3-0.2,0.6-0.4,0.9-0.6l0,0c0.3-0.2,0.5-0.3,0.8-0.3l0,0c0.3,0,0.5,0.1,0.7,0.2l0,0
						c0.2,0.1,0.4,0.3,0.6,0.6l0,0l1.7,2.4c-0.3,0.4-0.8,0.8-1.3,1.2l0,0c-0.5,0.4-1.1,0.7-1.7,1l0,0c-0.6,0.3-1.3,0.5-2,0.6l0,0
						c-0.7,0.2-1.4,0.2-2.1,0.2l0,0C367.8,136.9,366.5,136.7,365.4,136.2"/>
				</g>
			</g>
		</g>
	</g>
	<g id="g134">
		<g id="g136">
			<g id="g142">
				<g id="g144">
					
						<radialGradient id="path160_00000062913891982999725880000003155866057428448167_" cx="-422.7144" cy="-235.0441" r="1" gradientTransform="matrix(-221.9937 -82.9335 -82.9335 221.9937 -112927.6562 17256.0371)" gradientUnits="userSpaceOnUse">
						<stop  offset="0" style="stop-color:#0073AA"/>
						<stop  offset="3.315284e-02" style="stop-color:#0073AA"/>
						<stop  offset="0.5223" style="stop-color:#1C9BD7"/>
						<stop  offset="0.6843" style="stop-color:#1C9BD7"/>
						<stop  offset="0.9944" style="stop-color:#005C98"/>
						<stop  offset="1" style="stop-color:#005C98"/>
					</radialGradient>
					<path id="path160" style="fill:url(#path160_00000062913891982999725880000003155866057428448167_);" d="M384,129
						c-0.9-0.3-1.7-0.7-2.4-1.2l0,0c-0.7-0.5-1.4-1.1-2-1.8l0,0c-0.6-0.7-1.1-1.5-1.5-2.3l0,0c-0.4-0.8-0.7-1.7-0.9-2.6l0,0
						c-0.2-0.9-0.3-1.9-0.3-2.9l0,0c0-1.2,0.2-2.2,0.5-3.2l0,0c0.4-1,0.9-1.8,1.5-2.5l0,0c0.7-0.7,1.4-1.2,2.4-1.6l0,0
						c0.9-0.4,1.9-0.6,3-0.6l0,0c0.9,0,1.7,0.1,2.4,0.2l0,0c0.7,0.1,1.4,0.4,2.1,0.7l0,0c0.7,0.3,1.3,0.7,1.9,1.2l0,0
						c0.6,0.5,1.3,1,1.9,1.7l0,0l-1.4,1.7c-0.1,0.1-0.3,0.3-0.4,0.3l0,0c-0.2,0.1-0.3,0.1-0.5,0.1l0,0c-0.3,0-0.5,0-0.7-0.1l0,0
						c-0.2-0.1-0.4-0.2-0.6-0.3l0,0c-0.2-0.1-0.4-0.3-0.6-0.4l0,0c-0.2-0.1-0.5-0.3-0.7-0.4l0,0c-0.3-0.1-0.6-0.2-0.9-0.3l0,0
						c-0.4-0.1-0.8-0.1-1.3-0.1l0,0c-1,0-1.8,0.3-2.3,0.9l0,0c-0.5,0.6-0.8,1.5-0.8,2.8l0,0c2.1,0.2,3.9,0.5,5.3,0.9l0,0
						c1.4,0.4,2.5,0.8,3.3,1.4l0,0c0.8,0.5,1.4,1.2,1.7,1.9l0,0c0.3,0.7,0.5,1.5,0.5,2.3l0,0c0,0.6-0.1,1.1-0.4,1.7l0,0
						c-0.3,0.6-0.7,1.1-1.2,1.5l0,0c-0.5,0.5-1.2,0.8-1.9,1.1l0,0c-0.8,0.3-1.6,0.4-2.6,0.4l0,0C385.8,129.4,384.8,129.3,384,129
						 M384.1,124.6c0.7,0.7,1.5,1.1,2.4,1.1l0,0c0.5,0,0.9-0.1,1.1-0.4l0,0c0.2-0.3,0.4-0.6,0.4-0.9l0,0c0-0.3-0.1-0.6-0.2-0.9l0,0
						c-0.1-0.3-0.4-0.5-0.8-0.7l0,0c-0.4-0.2-0.9-0.4-1.7-0.7l0,0c-0.7-0.2-1.6-0.4-2.8-0.6l0,0
						C382.9,122.9,383.4,123.9,384.1,124.6"/>
				</g>
			</g>
		</g>
	</g>
	<g id="g162">
		<g id="g164">
			<g id="g170">
				<g id="g172">
					
						<radialGradient id="path188_00000095304874975901140060000006543751586706282148_" cx="-422.7144" cy="-235.0441" r="1" gradientTransform="matrix(-221.9937 -82.9335 -82.9335 221.9937 -112927.6562 17256.0371)" gradientUnits="userSpaceOnUse">
						<stop  offset="0" style="stop-color:#0073AA"/>
						<stop  offset="3.315284e-02" style="stop-color:#0073AA"/>
						<stop  offset="0.5223" style="stop-color:#1C9BD7"/>
						<stop  offset="0.6843" style="stop-color:#1C9BD7"/>
						<stop  offset="0.9944" style="stop-color:#005C98"/>
						<stop  offset="1" style="stop-color:#005C98"/>
					</radialGradient>
					<path id="path188" style="fill:url(#path188_00000095304874975901140060000006543751586706282148_);" d="M405.9,129.3
						c-0.6,0-1.1-0.2-1.7-0.5l0,0c-0.5-0.3-1.1-0.8-1.6-1.3l0,0c-0.5-0.6-1-1.3-1.4-2.1l0,0v2.1c0,0.6-0.2,1-0.5,1.3l0,0
						c-0.3,0.3-0.8,0.4-1.3,0.4l0,0h-2.9l-2.2-18.5h5.4l1,8.3c0.3,1.2,0.6,2.2,1,2.9l0,0c0.4,0.8,0.8,1.3,1.3,1.7l0,0
						c0.5,0.4,1,0.6,1.6,0.6l0,0c0.6,0,1.2-0.1,1.9-0.4l0,0l1,5.1c-0.5,0.2-1,0.3-1.5,0.3l0,0C406,129.3,405.9,129.3,405.9,129.3"/>
				</g>
			</g>
		</g>
	</g>
	<g id="g190">
		<g id="g192">
			<g id="g198">
				<g id="g200">
					
						<radialGradient id="path216_00000102528156660125240470000007300722859380442032_" cx="-422.7144" cy="-235.0441" r="1" gradientTransform="matrix(-221.9937 -82.9335 -82.9335 221.9937 -112927.6562 17256.0371)" gradientUnits="userSpaceOnUse">
						<stop  offset="0" style="stop-color:#0073AA"/>
						<stop  offset="3.315284e-02" style="stop-color:#0073AA"/>
						<stop  offset="0.5223" style="stop-color:#1C9BD7"/>
						<stop  offset="0.6843" style="stop-color:#1C9BD7"/>
						<stop  offset="0.9944" style="stop-color:#005C98"/>
						<stop  offset="1" style="stop-color:#005C98"/>
					</radialGradient>
					<path id="path216" style="fill:url(#path216_00000102528156660125240470000007300722859380442032_);" d="M421.4,129.2
						c-0.3,0-0.6-0.1-0.9-0.3l0,0c-0.3-0.2-0.5-0.4-0.6-0.7l0,0l-3.2-8.3c-0.3-0.7-0.6-1.4-0.8-2.1l0,0c-0.3-0.7-0.5-1.3-0.7-2l0,0
						c0,0.7-0.1,1.4-0.2,2l0,0c-0.1,0.7-0.2,1.4-0.3,2.1l0,0l-1.2,8.3c-0.1,0.3-0.2,0.5-0.4,0.7l0,0c-0.2,0.2-0.5,0.3-0.9,0.3l0,0
						h-4.6l4.5-18.5h4.7l9,18.5H421.4z"/>
				</g>
			</g>
		</g>
	</g>
	<g id="g218">
		<g id="g220">
			<g id="g226">
				<g id="g228">
					
						<radialGradient id="path244_00000132772565939166291150000008553866641968915331_" cx="-422.7144" cy="-235.0441" r="1" gradientTransform="matrix(-221.9937 -82.9335 -82.9335 221.9937 -112927.6562 17256.0371)" gradientUnits="userSpaceOnUse">
						<stop  offset="0" style="stop-color:#0073AA"/>
						<stop  offset="3.315284e-02" style="stop-color:#0073AA"/>
						<stop  offset="0.5223" style="stop-color:#1C9BD7"/>
						<stop  offset="0.6843" style="stop-color:#1C9BD7"/>
						<stop  offset="0.9944" style="stop-color:#005C98"/>
						<stop  offset="1" style="stop-color:#005C98"/>
					</radialGradient>
					<path id="path244" style="fill:url(#path244_00000132772565939166291150000008553866641968915331_);" d="M429.6,137.2
						c-0.4-0.2-0.7-0.4-1-0.7l0,0c-0.3-0.3-0.5-0.6-0.7-1l0,0c-0.2-0.4-0.3-0.8-0.3-1.2l0,0c0-0.4,0.1-0.9,0.3-1.2l0,0
						c0.2-0.4,0.4-0.7,0.7-1l0,0c0.3-0.3,0.6-0.5,1-0.7l0,0c0.4-0.2,0.8-0.3,1.2-0.3l0,0c0.4,0,0.8,0.1,1.2,0.3l0,0
						c0.4,0.2,0.8,0.4,1.1,0.7l0,0c0.3,0.3,0.6,0.6,0.7,1l0,0c0.2,0.4,0.3,0.8,0.3,1.2l0,0c0,0.5-0.1,0.9-0.3,1.3l0,0
						c-0.2,0.4-0.4,0.7-0.7,1l0,0c-0.3,0.3-0.7,0.5-1,0.7l0,0c-0.4,0.2-0.8,0.2-1.2,0.2l0,0C430.4,137.5,430,137.4,429.6,137.2
						 M427.6,129.2l-2.2-18.5h5.5l2.2,18.5H427.6z"/>
				</g>
			</g>
		</g>
	</g>
	<g id="g246">
		<g id="g248">
			<g id="g254">
				<g id="g256">
					
						<radialGradient id="path272_00000075856410108526640910000010577679137938484398_" cx="-422.7144" cy="-235.0441" r="1" gradientTransform="matrix(-221.9937 -82.9335 -82.9335 221.9937 -112927.6562 17256.0371)" gradientUnits="userSpaceOnUse">
						<stop  offset="0" style="stop-color:#0073AA"/>
						<stop  offset="3.315284e-02" style="stop-color:#0073AA"/>
						<stop  offset="0.5223" style="stop-color:#1C9BD7"/>
						<stop  offset="0.6843" style="stop-color:#1C9BD7"/>
						<stop  offset="0.9944" style="stop-color:#005C98"/>
						<stop  offset="1" style="stop-color:#005C98"/>
					</radialGradient>
					<path id="path272" style="fill:url(#path272_00000075856410108526640910000010577679137938484398_);" d="M440.5,128.5
						c-1.2-0.6-2.3-1.4-3.1-2.4l0,0c-0.9-1-1.6-2.2-2.1-3.6l0,0c-0.5-1.4-0.7-2.8-0.7-4.3l0,0c0-1.2,0.2-2.3,0.5-3.2l0,0
						c0.3-1,0.8-1.8,1.4-2.5l0,0c0.6-0.7,1.4-1.2,2.2-1.6l0,0c0.9-0.4,1.8-0.6,2.9-0.6l0,0c0.8,0,1.5,0.1,2.2,0.2l0,0
						c0.7,0.1,1.3,0.3,1.9,0.6l0,0c0.6,0.3,1.1,0.6,1.7,1.1l0,0c0.5,0.5,1.1,1,1.7,1.7l0,0l-1.4,1.7c-0.1,0.1-0.3,0.2-0.4,0.3l0,0
						c-0.2,0.1-0.3,0.1-0.5,0.1l0,0c-0.3,0-0.6-0.1-0.8-0.2l0,0c-0.2-0.2-0.5-0.3-0.7-0.5l0,0c-0.3-0.2-0.6-0.4-0.9-0.5l0,0
						c-0.4-0.2-0.8-0.2-1.4-0.2l0,0c-0.4,0-0.7,0.1-1.1,0.2l0,0c-0.3,0.2-0.6,0.4-0.9,0.7l0,0c-0.3,0.3-0.4,0.7-0.6,1.1l0,0
						c-0.1,0.5-0.2,1-0.2,1.6l0,0c0,1.1,0.1,2.1,0.4,3l0,0c0.2,0.9,0.6,1.6,1,2.2l0,0c0.4,0.6,0.9,1,1.4,1.4l0,0
						c0.5,0.3,1.1,0.5,1.6,0.5l0,0c0.4,0,0.8-0.1,1.1-0.2l0,0c0.3-0.1,0.5-0.2,0.7-0.3l0,0c0.2-0.1,0.4-0.2,0.5-0.3l0,0
						c0.2-0.1,0.4-0.2,0.6-0.2l0,0c0.2,0,0.4,0.1,0.6,0.2l0,0c0.2,0.1,0.3,0.2,0.4,0.3l0,0l1.8,2.1c-0.7,0.9-1.5,1.6-2.4,2l0,0
						c-0.9,0.4-1.9,0.6-3.2,0.6l0,0C443.1,129.4,441.7,129.1,440.5,128.5"/>
				</g>
			</g>
		</g>
	</g>
	<g id="g274">
		<g id="g276">
			<g id="g282">
				<g id="g284">
					
						<radialGradient id="path300_00000016034254094699370300000014136299824318329505_" cx="-422.7144" cy="-235.0441" r="1" gradientTransform="matrix(-221.9937 -82.9335 -82.9335 221.9937 -112927.6562 17256.0371)" gradientUnits="userSpaceOnUse">
						<stop  offset="0" style="stop-color:#0073AA"/>
						<stop  offset="3.315284e-02" style="stop-color:#0073AA"/>
						<stop  offset="0.5223" style="stop-color:#1C9BD7"/>
						<stop  offset="0.6843" style="stop-color:#1C9BD7"/>
						<stop  offset="0.9944" style="stop-color:#005C98"/>
						<stop  offset="1" style="stop-color:#005C98"/>
					</radialGradient>
					<path id="path300" style="fill:url(#path300_00000016034254094699370300000014136299824318329505_);" d="M457.5,129
						c-0.9-0.3-1.7-0.7-2.4-1.2l0,0c-0.7-0.5-1.4-1.1-2-1.8l0,0c-0.6-0.7-1.1-1.5-1.5-2.3l0,0c-0.4-0.8-0.7-1.7-0.9-2.6l0,0
						c-0.2-0.9-0.3-1.9-0.3-2.9l0,0c0-1.2,0.2-2.2,0.5-3.2l0,0c0.4-1,0.9-1.8,1.5-2.5l0,0c0.7-0.7,1.4-1.2,2.4-1.6l0,0
						c0.9-0.4,1.9-0.6,3-0.6l0,0c0.9,0,1.7,0.1,2.4,0.2l0,0c0.7,0.1,1.4,0.4,2.1,0.7l0,0c0.7,0.3,1.3,0.7,1.9,1.2l0,0
						c0.6,0.5,1.3,1,1.9,1.7l0,0l-1.4,1.7c-0.1,0.1-0.3,0.3-0.4,0.3l0,0c-0.2,0.1-0.3,0.1-0.5,0.1l0,0c-0.3,0-0.5,0-0.7-0.1l0,0
						c-0.2-0.1-0.4-0.2-0.6-0.3l0,0c-0.2-0.1-0.4-0.3-0.6-0.4l0,0c-0.2-0.1-0.5-0.3-0.7-0.4l0,0c-0.3-0.1-0.6-0.2-0.9-0.3l0,0
						c-0.4-0.1-0.8-0.1-1.3-0.1l0,0c-1,0-1.8,0.3-2.3,0.9l0,0c-0.5,0.6-0.8,1.5-0.8,2.8l0,0c2.1,0.2,3.9,0.5,5.3,0.9l0,0
						c1.4,0.4,2.5,0.8,3.3,1.4l0,0c0.8,0.5,1.4,1.2,1.7,1.9l0,0c0.3,0.7,0.5,1.5,0.5,2.3l0,0c0,0.6-0.1,1.1-0.4,1.7l0,0
						c-0.3,0.6-0.7,1.1-1.2,1.5l0,0c-0.5,0.5-1.2,0.8-1.9,1.1l0,0c-0.8,0.3-1.6,0.4-2.6,0.4l0,0C459.3,129.4,458.4,129.3,457.5,129
						 M457.6,124.6c0.7,0.7,1.5,1.1,2.4,1.1l0,0c0.5,0,0.9-0.1,1.1-0.4l0,0c0.2-0.3,0.4-0.6,0.4-0.9l0,0c0-0.3-0.1-0.6-0.2-0.9l0,0
						c-0.1-0.3-0.4-0.5-0.8-0.7l0,0c-0.4-0.2-0.9-0.4-1.7-0.7l0,0c-0.7-0.2-1.6-0.4-2.8-0.6l0,0
						C456.4,122.9,456.9,123.9,457.6,124.6"/>
				</g>
			</g>
		</g>
	</g>
	<g id="g302">
		<g id="g304">
			<g id="g310">
				<g id="g312">
					
						<radialGradient id="path328_00000052817628420647271730000018149874655010604730_" cx="-422.7144" cy="-235.0441" r="1" gradientTransform="matrix(-221.9937 -82.9335 -82.9335 221.9937 -112927.6562 17256.0371)" gradientUnits="userSpaceOnUse">
						<stop  offset="0" style="stop-color:#0073AA"/>
						<stop  offset="3.315284e-02" style="stop-color:#0073AA"/>
						<stop  offset="0.5223" style="stop-color:#1C9BD7"/>
						<stop  offset="0.6843" style="stop-color:#1C9BD7"/>
						<stop  offset="0.9944" style="stop-color:#005C98"/>
						<stop  offset="1" style="stop-color:#005C98"/>
					</radialGradient>
					<path id="path328" style="fill:url(#path328_00000052817628420647271730000018149874655010604730_);" d="M473,128.9
						c-0.9-0.4-1.7-0.9-2.3-1.5l0,0c-0.6-0.6-1.1-1.3-1.4-2.1l0,0c-0.3-0.8-0.5-1.6-0.5-2.5l0,0c0-0.7,0.1-1.3,0.3-1.8l0,0
						c0.2-0.5,0.5-0.9,0.8-1.2l0,0c0.3-0.3,0.7-0.6,1.1-0.8l0,0c0.4-0.2,0.8-0.4,1.2-0.6l0,0c0.4-0.2,0.8-0.3,1.2-0.5l0,0
						c0.4-0.1,0.8-0.3,1.1-0.5l0,0c0.3-0.2,0.6-0.4,0.8-0.6l0,0c0.2-0.2,0.3-0.5,0.3-0.9l0,0c0-0.5-0.2-0.9-0.6-1.2l0,0
						c-0.4-0.4-1-0.5-1.7-0.5l0,0c-0.6,0-1,0.1-1.4,0.2l0,0c-0.3,0.1-0.6,0.3-0.9,0.5l0,0c-0.2,0.2-0.5,0.3-0.7,0.5l0,0
						c-0.2,0.1-0.5,0.2-0.8,0.2l0,0c-0.3,0-0.6-0.1-0.8-0.2l0,0c-0.2-0.1-0.4-0.3-0.6-0.6l0,0l-1.4-2c0.3-0.3,0.6-0.6,1-0.9l0,0
						c0.4-0.3,0.9-0.5,1.4-0.7l0,0c0.5-0.2,1-0.4,1.6-0.5l0,0c0.6-0.1,1.1-0.2,1.7-0.2l0,0c1.2,0,2.3,0.2,3.3,0.5l0,0
						c1,0.4,1.8,0.9,2.5,1.5l0,0c0.7,0.6,1.2,1.3,1.6,2.2l0,0c0.4,0.8,0.6,1.7,0.6,2.6l0,0c0,0.7-0.1,1.2-0.3,1.7l0,0
						c-0.2,0.5-0.5,0.9-0.8,1.2l0,0c-0.3,0.3-0.7,0.6-1.1,0.9l0,0c-0.4,0.2-0.8,0.4-1.3,0.6l0,0c-0.4,0.2-0.8,0.4-1.3,0.5l0,0
						c-0.4,0.1-0.8,0.3-1.1,0.5l0,0c-0.3,0.2-0.6,0.4-0.8,0.6l0,0c-0.2,0.2-0.3,0.5-0.3,0.8l0,0c0,0.5,0.2,0.9,0.5,1.2l0,0
						c0.3,0.3,0.9,0.5,1.8,0.5l0,0c0.4,0,0.8-0.1,1.2-0.2l0,0c0.3-0.1,0.6-0.2,0.9-0.4l0,0c0.3-0.1,0.5-0.3,0.7-0.4l0,0
						c0.2-0.1,0.5-0.2,0.7-0.2l0,0c0.2,0,0.4,0,0.6,0.1l0,0c0.1,0.1,0.3,0.2,0.5,0.5l0,0l1.4,2c-0.6,0.6-1.4,1.1-2.4,1.6l0,0
						c-1,0.4-2.1,0.6-3.3,0.6l0,0C475,129.5,473.9,129.3,473,128.9"/>
				</g>
			</g>
		</g>
	</g>
	<g id="g330">
		<g id="g332">
			<g id="g338">
				<g id="g340">
					
						<linearGradient id="path356_00000050631802165335665540000010511860183805596575_" gradientUnits="userSpaceOnUse" x1="-418.091" y1="-230.7371" x2="-417.091" y2="-230.7371" gradientTransform="matrix(123.6383 0 0 -123.6383 51802.1602 -28353.5586)">
						<stop  offset="0" style="stop-color:#0073AA"/>
						<stop  offset="3.315284e-02" style="stop-color:#0073AA"/>
						<stop  offset="0.5223" style="stop-color:#1C9BD7"/>
						<stop  offset="0.6843" style="stop-color:#1C9BD7"/>
						<stop  offset="0.9944" style="stop-color:#025790"/>
						<stop  offset="1" style="stop-color:#025790"/>
					</linearGradient>
					<path id="path356" style="fill:url(#path356_00000050631802165335665540000010511860183805596575_);" d="M121.4,239.5
						c0-0.3,0-0.6,0-0.9l0,0c0-7.3,0-14.5,0-21.8l0,0c0-0.5,0.2-1.1,0.5-1.6l0,0c8.8-13.3,17.5-26.7,26.3-40l0,0
						c0.6-0.9,0.6-1.4,0-2.3l0,0c-8.8-13.3-17.6-26.6-26.3-40l0,0c-0.3-0.5-0.6-1.2-0.6-1.8l0,0c0-6.9,0-13.7,0-20.6l0,0v-1.2h81.4
						v16.1c-0.6,0-1,0-1.5,0l0,0c-2,0-4,0-6,0l0,0c-5.8,0-11.5,0-17.3,0.1l0,0c-1.6,0-3.2,0.5-4.7,1.2l0,0c-2.9,1.4-3.7,4.2-3.7,7
						l0,0c-0.1,27.2-0.1,54.3,0,81.5l0,0c0,1.6,0.5,3.2,1.2,4.6l0,0c1.4,2.8,4.1,3.6,7,3.6l0,0c7.9,0,15.7,0,23.6,0l0,0h1.4v16.1
						L121.4,239.5z M110.1,131.4c0.3,0.4,0.5,0.6,0.6,0.8l0,0c9,13.6,18,27.3,27,40.9l0,0c0.5,0.7,0.4,1.2,0,1.9l0,0
						c-9,13.6-17.9,27.1-26.8,40.7l0,0c-0.2,0.3-0.4,0.5-0.7,0.9l0,0V131.4z"/>
				</g>
			</g>
		</g>
	</g>
	<g id="g358">
		<g id="g360">
			<g id="g366">
				<g id="g368">
					
						<radialGradient id="path384_00000067952863399975814560000005963591265590936990_" cx="-424.2087" cy="-233.7784" r="1" gradientTransform="matrix(-171.731 77.0695 77.0695 171.731 -54680.4023 73026.9766)" gradientUnits="userSpaceOnUse">
						<stop  offset="0" style="stop-color:#0073AA"/>
						<stop  offset="3.315284e-02" style="stop-color:#0073AA"/>
						<stop  offset="0.5223" style="stop-color:#1C9BD7"/>
						<stop  offset="0.6843" style="stop-color:#1C9BD7"/>
						<stop  offset="0.9944" style="stop-color:#005C98"/>
						<stop  offset="1" style="stop-color:#005C98"/>
					</radialGradient>
					<path id="path384" style="fill:url(#path384_00000067952863399975814560000005963591265590936990_);" d="M121.4,239.5
						c0-0.3,0-0.6,0-0.9l0,0c0-7.3,0-14.5,0-21.8l0,0c0-0.5,0.2-1.1,0.5-1.6l0,0c8.8-13.3,17.5-26.7,26.3-40l0,0
						c0.6-0.9,0.6-1.4,0-2.3l0,0c-8.8-13.3-17.6-26.6-26.3-40l0,0c-0.3-0.5-0.6-1.2-0.6-1.8l0,0c0-6.9,0-13.7,0-20.6l0,0v-1.2h81.4
						v16.1c-0.6,0-1,0-1.5,0l0,0c-2,0-4,0-6,0l0,0c-5.8,0-11.5,0-17.3,0.1l0,0c-1.6,0-3.2,0.5-4.7,1.2l0,0c-2.9,1.4-3.7,4.2-3.7,7
						l0,0c-0.1,27.2-0.1,54.3,0,81.5l0,0c0,1.6,0.5,3.2,1.2,4.6l0,0c1.4,2.8,4.1,3.6,7,3.6l0,0c7.9,0,15.7,0,23.6,0l0,0h1.4v16.1
						L121.4,239.5z"/>
				</g>
			</g>
		</g>
	</g>
</g>
</svg>
